<svg width="932" height="958" viewBox="0 0 932 958" fill="none" xmlns="http://www.w3.org/2000/svg">
<path d="M470 45L479.051 275.794C479.097 276.965 480.773 277.116 481.026 275.971L524 82L499.364 274.498C499.209 275.706 500.94 276.088 501.309 274.927L567.34 67L518.53 279.472C518.26 280.649 519.922 281.208 520.417 280.105L596.377 111L534.049 295.147L629.244 98L553.584 296.347C553.173 297.424 554.61 298.227 555.312 297.311L683.954 129.469L574.447 300.978C573.782 302.02 575.228 303.105 576.042 302.175L694 167.518L589.938 312.693C589.22 313.695 590.598 314.856 591.464 313.977L749 154L603.154 327.558C602.374 328.486 603.61 329.742 604.551 328.977L740.505 218.436L608.895 349.525L796 191.495L625.508 359.136C624.671 359.96 625.693 361.303 626.71 360.715L802.531 259L635.512 376.453C634.555 377.126 635.335 378.614 636.434 378.209L841 302.756L636.853 397.951L878 313.948L649.146 412.927C648.082 413.387 648.521 414.984 649.67 414.836L871 386.32L654.213 432.407C653.065 432.651 653.204 434.333 654.378 434.384L852 443L648.479 452.646L878 471.354H660.083C658.859 471.354 658.706 473.13 659.912 473.339L861 508.257L656.681 490.825C655.477 490.722 655.158 492.448 656.319 492.782L831 543.139L655.29 510.601C654.077 510.376 653.612 512.118 654.776 512.527L858 584L647.331 528.795C646.155 528.486 645.551 530.148 646.651 530.667L819 611.891L637.359 546.079C636.242 545.674 635.477 547.207 636.472 547.857L819 667L629.477 564.523C628.406 563.945 627.426 565.418 628.373 566.181L764.482 675.954L617.348 579.988C616.337 579.329 615.239 580.695 616.102 581.54L764.482 727L604.963 595.457C604.023 594.682 602.776 595.944 603.564 596.875L706 718L589.077 607.154C588.21 606.332 586.892 607.448 587.56 608.438L713 794.53L574.182 620.469C573.423 619.517 571.944 620.491 572.518 621.565L660 785L556.92 629.941C556.25 628.932 554.698 629.762 555.165 630.88L629.244 808.185L537.448 635.257C536.903 634.231 535.341 634.802 535.588 635.938L573 808.185L520.158 646.564C519.775 645.394 518.027 645.815 518.219 647.031L551.139 855L500.461 648.71C500.172 647.532 498.43 647.788 498.491 648.999L508.048 837L480.908 651.125C480.732 649.922 478.968 650.015 478.919 651.229L470 872L461.112 652.017C461.063 650.795 459.283 650.713 459.122 651.925L437 818.046L441.796 647.271C441.829 646.082 440.129 645.839 439.829 646.99L388.861 842L422.171 643.977C422.37 642.793 420.697 642.327 420.255 643.443L343.623 837L402.281 641.108C402.635 639.926 400.955 639.277 400.422 640.389L331.105 785L385.934 629.543C386.33 628.421 384.784 627.67 384.146 628.675L264 818.046L367.436 621.802C368.005 620.723 366.514 619.759 365.763 620.72L264 751L353.382 607.544C354.003 606.548 352.696 605.482 351.845 606.29L199.495 751L343.623 588.377L208 708L326.904 579.032C327.673 578.197 326.677 576.929 325.684 577.479L148 675.954L310.628 565.764C311.639 565.079 310.773 563.524 309.658 564.024L165 628.853L299.576 549.714C300.64 549.088 299.847 547.467 298.7 547.922L137.469 611.891L296.292 529.6C297.333 529.061 296.757 527.48 295.614 527.737L87 574.475L297.366 508.257L100 543.139L285.629 492.116C286.766 491.803 286.519 490.124 285.34 490.152L81 495L281.532 472.476C282.732 472.341 282.71 470.59 281.507 470.486L137.469 458L280.934 453.014C282.147 452.972 282.251 451.212 281.052 451.027L53 415.743L281.482 433.129C282.705 433.222 282.988 431.455 281.797 431.161L100 386.32L287.828 414.321C289.017 414.498 289.45 412.812 288.322 412.394L81 335.623L292.339 394.919C293.513 395.248 294.143 393.588 293.045 393.056L126 312.109L301.031 377.242C302.166 377.665 302.934 376.083 301.901 375.452L137.469 275L320.109 364.66L114 226L322.367 344.553C323.416 345.151 324.429 343.722 323.518 342.93L189 226L307.076 309.712C308.025 310.385 309.164 309.168 308.43 308.266L195.864 169.82L341.695 308.095C342.555 308.911 343.868 307.816 343.22 306.823L246.388 158.36L366.564 304.687C367.327 305.616 368.779 304.657 368.224 303.591L297.366 167.518L383.23 294.432C383.906 295.432 385.447 294.599 384.98 293.486L303.147 98L400.906 285.472C401.469 286.551 403.106 285.88 402.749 284.716L347.867 105.954L419.826 279.897C420.288 281.015 421.968 280.504 421.73 279.318L378 61L439.599 276.915C439.926 278.061 441.624 277.776 441.559 276.586L431 82L459.079 272.871C459.256 274.073 461.02 273.979 461.068 272.764L470 45Z" fill="#81F2FF"/>
<path d="M362.825 57.925L431.301 278.513C431.649 279.632 433.307 279.343 433.255 278.173L424.561 79.6881L450.586 272.003C450.75 273.21 452.521 273.131 452.576 271.914L462.542 53.9819L470.387 271.847C470.431 273.054 472.181 273.163 472.374 271.97L501.978 88.9674L489.434 282.971L530.361 67.9037L508.614 279.074C508.496 280.221 510.092 280.624 510.533 279.559L591.351 84.1409L529.965 278.148C529.592 279.326 531.27 280 531.816 278.891L610.902 118.293L547.96 285.454C547.526 286.608 549.158 287.373 549.766 286.3L660.53 91.0005L564.574 296.392C564.06 297.491 565.579 298.384 566.29 297.402L669.001 155.44L575.804 316.125L715.633 115.054L594.339 321.109C593.743 322.121 595.079 323.154 595.908 322.322L739.412 178.568L608.484 335.246C607.733 336.145 608.872 337.38 609.828 336.704L787.895 210.876L615.343 355.665L826.532 212.111L631.093 366.949C630.185 367.668 631.022 369.098 632.094 368.657L838.501 283.829L641.03 384.453C639.983 384.986 640.553 386.575 641.7 386.32L834.819 343.495L640.729 405.487L867.271 364.153L656.779 420.554C655.598 420.871 655.91 422.626 657.128 422.516L860.402 404.199L658.533 440.242C657.343 440.455 657.482 442.204 658.69 442.227L840.452 445.657L662.308 459.704C661.078 459.801 661.08 461.604 662.31 461.698L877.108 478.137L659.329 479.338C658.113 479.345 657.96 481.106 659.157 481.322L846.655 515.171L654.17 498.615C652.987 498.513 652.644 500.192 653.773 500.561L860.919 568.403L651.33 518.47C650.147 518.189 649.581 519.865 650.693 520.358L810.576 591.162L643.618 536.548C642.47 536.172 641.763 537.776 642.815 538.369L823.787 640.469L635.658 554.695C634.549 554.189 633.672 555.731 634.673 556.426L764.969 646.912L623.341 570.105C622.29 569.535 621.306 570.954 622.208 571.738L791.538 719.023L612.399 586.821C611.42 586.099 610.243 587.422 611.076 588.31L737.877 723.535L598.178 600.438C597.268 599.637 595.984 600.84 596.725 601.8L714.17 753.889L580.745 610.613C579.953 609.762 578.592 610.719 579.124 611.752L659.842 768.446L566.97 626.01C566.297 624.978 564.718 625.837 565.219 626.962L650.843 819.325L548.5 633.18C547.916 632.118 546.299 632.816 546.672 633.969L604.562 813.091L530.238 640.573C529.757 639.457 528.077 640.003 528.344 641.189L576.868 856.746L511.348 646.559C510.984 645.391 509.244 645.773 509.401 646.985L531.028 813.171L491.461 646.974C491.185 645.817 489.481 646.022 489.488 647.212L490.729 848.768L471.653 648.871C471.539 647.677 469.802 647.659 469.664 648.851L445.739 855.647L451.698 651.248C451.734 650.015 449.943 649.822 449.715 651.034L420.189 808.659L432.914 644.309C433.006 643.122 431.319 642.797 430.963 643.933L363.923 857.947L413.043 641.618C413.313 640.429 411.624 639.884 411.147 641.006L346.57 793.185L395.778 631.484C396.12 630.361 394.581 629.669 393.968 630.671L284.264 809.88L381.39 615.496L281.349 766.144L362.822 610.796C363.35 609.791 362.059 608.824 361.242 609.612L215.1 750.719L343.667 602.193C344.467 601.269 343.228 599.992 342.28 600.763L219.33 700.824L328.837 589.55C329.703 588.67 328.518 587.31 327.528 588.046L188.347 691.565L320.46 570.972C321.326 570.182 320.36 568.804 319.322 569.347L129.913 668.486L315.973 550.078L134.36 634.853L300.458 537.524C301.476 536.928 300.803 535.37 299.671 535.702L103.548 593.272L291.418 519.614C292.542 519.173 292.067 517.488 290.878 517.698L148.517 542.918L285.803 500.97C286.963 500.616 286.609 498.889 285.403 499.02L55.9892 523.963L281.185 481.621C282.391 481.394 282.207 479.614 280.981 479.638L93.7726 483.378L282.447 461.811C283.642 461.675 283.624 459.934 282.426 459.822L62.2986 439.326L281.783 441.903C283.003 441.917 283.181 440.15 281.983 439.921L99.6795 404.967L285.604 422.579C286.81 422.693 287.143 420.966 285.981 420.624L101.153 366.153L300.776 405.487L65.8016 324.897L297.753 385.482C298.921 385.787 299.529 384.145 298.444 383.615L138.246 305.486L273.965 355.785C275.056 356.19 275.841 354.72 274.899 354.037L130.335 249.444L306.986 345.263C308.028 345.829 309.013 344.431 308.13 343.64L176.172 225.298L330.126 335.535C331.103 336.234 332.257 334.932 331.445 334.046L227.783 220.949L343.569 321.316C344.481 322.107 345.754 320.903 345.015 319.948L215.375 152.304L358.324 308.086C359.147 308.983 360.554 307.91 359.909 306.879L260.63 148.413L375.156 297.804C375.892 298.764 377.382 297.837 376.846 296.752L278.101 97.1912L393.484 289.806C394.096 290.828 395.662 290.114 395.292 288.981L334.73 103.758L411.254 280.858C411.736 281.973 413.415 281.426 413.147 280.24L362.825 57.925Z" fill="#81F2FF"/>
<path d="M340.231 86.9535L420.357 290.731C420.786 291.821 422.418 291.411 422.281 290.248L400.224 103.252L438.195 283.035C438.447 284.227 440.207 284.018 440.173 282.8L434.4 76.2514L456.997 281.54C457.129 282.741 458.883 282.721 458.987 281.518L474.195 106.632L475.87 291.253L499.605 84.6984L493.773 285.877C493.74 287.03 495.362 287.315 495.723 286.219L558.505 95.8156L514.074 283.206C513.789 284.409 515.512 284.958 515.975 283.812L579.409 126.795L531.657 288.897C531.309 290.081 532.992 290.723 533.52 289.608L624.505 97.4787L548.162 298.219C547.731 299.353 549.311 300.132 549.948 299.1L637.031 157.919L559.989 316.62L678.375 116.41L578.068 319.689C577.548 320.742 578.956 321.674 579.722 320.784L705.335 174.904L592.502 332.133C591.82 333.084 593.047 334.232 593.95 333.488L753.512 202.116L600.201 351.306L790.191 200.586L616.168 360.651C615.316 361.435 616.256 362.799 617.293 362.281L806.539 267.675L626.879 376.572C625.874 377.181 626.56 378.723 627.685 378.385L807.22 324.444L627.725 396.72L839.4 341.742L644.531 409.676C643.376 410.079 643.816 411.806 645.023 411.607L835.692 380.15L647.513 428.266C646.342 428.566 646.609 430.3 647.816 430.233L819.694 420.81L652.591 446.464C651.372 446.651 651.506 448.449 652.74 448.452L856.681 449.012L651.045 465.323C649.833 465.419 649.81 467.187 651.019 467.314L830.426 486.216L647.397 483.989C646.209 483.974 645.991 485.674 647.144 485.959L847.655 535.636L646.201 503.075C645 502.881 644.56 504.595 645.705 505.004L801.565 560.709L640.111 520.77C638.939 520.48 638.353 522.131 639.445 522.646L817.523 606.485L633.873 538.586C632.73 538.164 631.969 539.766 633.018 540.385L762.264 616.698L623.176 554.035C622.086 553.545 621.209 555.032 622.166 555.748L792.467 683.139L614.031 570.739C613.001 570.09 611.925 571.497 612.821 572.321L741.959 691.162L601.464 584.653C600.499 583.921 599.307 585.215 600.116 586.117L721.626 721.568L585.513 595.438C584.661 594.648 583.374 595.702 583.98 596.693L671.188 739.151L573.658 611.237C572.911 610.258 571.399 611.231 571.981 612.316L666.22 787.968L556.57 619.259C555.909 618.243 554.348 619.058 554.805 620.181L621.95 785.297L539.753 627.575C539.191 626.498 537.556 627.166 537.909 628.328L598.772 828.579L522.243 634.624C521.794 633.487 520.087 633.995 520.333 635.193L552.311 790.511L503.357 636.286C502.997 635.153 501.312 635.483 501.407 636.669L516.63 827.042L484.675 639.518C484.473 638.335 482.74 638.445 482.69 639.644L474.499 836.701L465.89 643.336C465.835 642.104 464.035 642.044 463.897 643.269L447.018 793.982L447.585 637.876C447.589 636.686 445.882 636.485 445.611 637.644L397.171 844.595L428.494 636.831C428.676 635.625 426.951 635.205 426.558 636.36L376.21 784.471L411.431 628.266C411.689 627.121 410.104 626.545 409.566 627.588L318.365 804.637L396.774 613.744L312.549 763.417L378.735 610.876C379.187 609.835 377.828 608.965 377.072 609.812L248.724 753.437L359.771 604.243C360.501 603.263 359.171 602.08 358.283 602.919L249.245 705.884L344.764 593.34C345.563 592.399 344.281 591.129 343.347 591.937L219.253 699.279L335.687 576.114C336.492 575.263 335.428 573.959 334.433 574.578L162.297 681.504L330.244 556.357L164.158 649.339L314.336 545.783C315.307 545.113 314.521 543.609 313.417 544.024L132.07 612.109L304.403 529.438C305.492 528.915 304.894 527.269 303.724 527.567L171.143 561.275L297.742 512.146C298.873 511.707 298.392 510.011 297.199 510.231L82.1831 549.788L291.928 494.105C293.114 493.79 292.8 492.028 291.578 492.143L115.133 508.709L291.848 475.19C293.029 474.966 292.882 473.231 291.68 473.208L82.2451 469.185L289.74 456.325C290.958 456.249 291.005 454.474 289.794 454.334L115.249 434.031L292.051 437.71C293.261 437.735 293.466 435.989 292.283 435.733L113.933 397.167L305.748 420.473L77.5675 360.563L300.989 401.645C302.177 401.864 302.662 400.181 301.541 399.733L144.825 337.116L276.528 375.17C277.646 375.493 278.321 373.969 277.331 373.358L133.417 284.59L307.031 362.824C308.112 363.311 308.992 361.845 308.053 361.121L175.143 258.518L328.246 351.917C329.271 352.543 330.327 351.159 329.452 350.335L223.721 250.793L339.992 337.46C340.96 338.182 342.14 336.888 341.333 335.99L207.172 186.645L353.048 323.825C353.934 324.659 355.259 323.486 354.539 322.505L249.763 179.797L368.328 312.902C369.133 313.805 370.551 312.77 369.936 311.729L262.731 130.063L385.213 304.065C385.899 305.039 387.408 304.212 386.956 303.109L316.824 132.326L401.425 294.234C401.988 295.311 403.623 294.642 403.268 293.479L340.231 86.9535Z" fill="#81F2FF"/>
<path d="M897.82 402.544L658.284 447.735C657.133 447.952 657.23 449.632 658.399 449.715L867.608 464.542L662.59 468.639C661.372 468.663 661.248 470.431 662.451 470.626L889.941 507.391L660.421 489.328C659.216 489.233 658.908 490.959 660.071 491.287L848.575 544.455L647.026 507.967L867.204 576.698L648.437 528.433C647.311 528.184 646.728 529.724 647.736 530.283L842.866 638.58L646.549 550.682C645.42 550.177 644.559 551.766 645.599 552.436L804.766 654.933L636.77 568.613C635.673 568.049 634.727 569.583 635.723 570.31L827.357 710.162L623.451 584.702C622.418 584.067 621.357 585.473 622.252 586.292L758.89 711.271L601.925 594.377L795.547 764.941L594.141 612.923C593.203 612.215 592.025 613.424 592.756 614.343L726.205 782.183L577.694 625.983C576.888 625.134 575.53 626.125 576.092 627.152L686.551 829.04L555.78 631.001L680.607 869.331L541.873 645.804C541.262 644.82 539.745 645.489 540.061 646.604L604.101 873.225L522.408 654.026C521.998 652.925 520.355 653.31 520.476 654.478L542.093 862.186L500.575 651.573L516.563 893.666L482.782 665.944C482.602 664.734 480.823 664.843 480.793 666.066L475.475 881.655L462.02 665.479C461.945 664.272 460.192 664.21 460.031 665.408L434.484 855.782L441.254 666.942C441.298 665.709 439.507 665.505 439.273 666.717L396.074 890.238L421.101 661.573C421.233 660.364 419.501 660.011 419.15 661.175L360.978 853.905L401.575 653.976C401.811 652.812 400.182 652.28 399.686 653.359L303.544 862.425L381.241 648.517C381.657 647.374 380.056 646.62 379.439 647.669L285.784 806.993L363.275 638.326C363.78 637.228 362.267 636.343 361.558 637.32L232.585 814.884L345.321 627.791C345.95 626.747 344.519 625.699 343.714 626.614L232.923 752.544L330.648 613.154C331.333 612.176 330.036 611.036 329.154 611.842L154.248 771.671L314.589 599.658C315.419 598.768 314.239 597.448 313.261 598.174L155.986 714.963L302.063 583.189C302.963 582.377 301.914 580.964 300.877 581.59L127.069 686.494L293.41 563.861C294.346 563.172 293.551 561.71 292.463 562.121L118.373 627.878L279.242 547.52C280.344 546.97 279.67 545.302 278.496 545.671L66.2038 612.333L273.879 527.412C275.001 526.953 274.493 525.267 273.304 525.506L78.301 564.642L268.371 507.454C269.535 507.104 269.185 505.373 267.977 505.503L35.9426 530.4L264.437 487.013C265.638 486.784 265.458 485.012 264.235 485.03L87.0704 487.667L266.254 466.207C267.436 466.066 267.426 464.349 266.244 464.22L54.6635 441.201L266.695 445.311C267.895 445.335 268.111 443.611 266.942 443.338L52.8805 393.282L266.781 424.227C268.002 424.404 268.398 422.646 267.22 422.282L105.138 372.197L276.09 405.394C277.259 405.621 277.775 403.982 276.687 403.499L60.3242 307.371L281.402 385.028C282.553 385.433 283.288 383.817 282.227 383.215L130.198 297.006L293.907 368.146C294.984 368.614 295.846 367.165 294.922 366.441L120.225 229.78L311.989 354.845L166.353 231.996L319.418 336.162C320.357 336.801 321.465 335.63 320.774 334.728L190.475 164.511L330.869 317.414C331.695 318.314 333.106 317.229 332.448 316.199L242.19 174.946L345.909 303.503C346.684 304.464 348.171 303.442 347.553 302.374L255.612 143.632L366.169 296.766C366.855 297.716 368.334 296.915 367.913 295.822L286.803 85.2496L388.336 294.25L321.47 93.9533L403.52 279.922C403.996 281.001 405.621 280.51 405.42 279.348L368.702 66.7096L423.317 272.737C423.626 273.904 425.355 273.625 425.281 272.42L415.992 119.84L443.471 269.143C443.691 270.336 445.447 270.181 445.455 268.968L446.973 25.2754L464.223 266.724C464.311 267.948 466.1 267.969 466.216 266.747L484.902 69.7088L484.759 270.304C484.758 271.506 486.49 271.687 486.738 270.51L534.8 42.0696L505.602 272.085C505.448 273.295 507.183 273.674 507.548 272.51L566.262 85.3322L525.328 278.358C525.076 279.543 526.754 280.071 527.227 278.956L606.71 91.5481L541.505 295.752L654.148 59.5134L562.614 295.499C562.178 296.624 563.74 297.416 564.389 296.399L665.743 137.676L596.578 274.024C596.052 275.062 597.422 276.01 598.208 275.151L725.354 136.144L603.531 309.876C602.851 310.847 604.126 311.985 605.013 311.198L745.108 187.028L610.844 335.276C610.037 336.166 611.199 337.462 612.172 336.757L743.446 241.571L624.057 351.041C623.167 351.857 624.217 353.258 625.25 352.634L816.789 236.848L636.051 368.057C635.066 368.772 635.971 370.293 637.069 369.769L815.413 284.684L644.788 386.851C643.751 387.473 644.502 389.06 645.64 388.65L866.922 309.138L650.99 406.912C649.904 407.404 650.435 409.041 651.603 408.803L853.23 367.62L658.099 426.559C656.935 426.911 657.288 428.642 658.496 428.511L897.82 402.544Z" fill="#81F2FF"/>
<path d="M924.976 428.913L669.1 460.182C667.936 460.324 667.924 462.007 669.086 462.165L888.905 492.161L672.017 482.419C670.8 482.365 670.561 484.121 671.749 484.393L909.501 538.832L668.371 504.014C667.175 503.842 666.756 505.544 667.895 505.947L863.384 575.049L653.544 522.815L880.804 610.293L653.263 544.366C652.155 544.045 651.474 545.544 652.443 546.168L850.928 673.822L649.467 567.44C648.374 566.863 647.412 568.393 648.405 569.128L809.67 688.442L637.976 585.638C636.918 585.005 635.875 586.474 636.822 587.264L829.69 748.174L622.977 601.705C621.987 601.003 620.837 602.338 621.677 603.213L757.482 744.656L600.116 610.763L792.428 803.708L590.313 629.482C589.423 628.715 588.169 629.845 588.839 630.81L718.195 817.127L572.152 642.074C571.402 641.176 569.983 642.076 570.477 643.137L673.212 863.778L548.994 646.19L664.193 905.818L533.143 660.485C532.597 659.463 531.041 660.032 531.283 661.165L583.325 904.685L512.134 667.743C511.796 666.618 510.132 666.896 510.177 668.07L518.754 888.812L489.427 664.085L489.703 920.23L469.644 677.362C469.544 676.143 467.761 676.137 467.652 677.355L447.238 904.763L447.858 675.528C447.862 674.319 446.116 674.143 445.878 675.328L405.823 874.701L425.951 675.503C426.075 674.276 424.301 673.956 423.989 675.15L363 908.372L405.119 668.586C405.33 667.389 403.624 666.924 403.198 668.063L328.511 867.693L385.089 659.377C385.401 658.231 383.81 657.594 383.245 658.639L267.421 872.739L364.159 652.142C364.648 651.028 363.099 650.172 362.416 651.179L252.504 813.123L345.953 640.237C346.527 639.175 345.075 638.194 344.304 639.123L195.917 817.797L327.845 627.895C328.54 626.894 327.18 625.756 326.317 626.617L200.54 752.143L313.351 611.585C314.099 610.653 312.878 609.431 311.946 610.179L116.344 766.91L297.484 596.244C298.37 595.409 297.278 594.015 296.256 594.676L122.056 707.285L285.427 578.094C286.377 577.342 285.422 575.864 284.346 576.422L93.5395 675.314L277.517 557.283C278.495 556.655 277.796 555.145 276.685 555.485L88.3901 612.965L264.013 539.044C265.148 538.566 264.584 536.858 263.388 537.15L34.4921 593.018L259.649 517.578C260.799 517.193 260.4 515.478 259.199 515.639L50.5005 543.602L255.242 496.226C256.426 495.952 256.189 494.202 254.975 494.253L8.21832 504.629L252.551 474.477C253.764 474.327 253.699 472.547 252.478 472.486L65.0072 463.107L255.737 452.735C256.925 452.67 257.027 450.956 255.856 450.751L34.0457 411.937L257.671 430.822C258.867 430.923 259.194 429.217 258.046 428.868L35.4466 361.331L259.376 408.719C260.583 408.974 261.092 407.246 259.94 406.806L91.9444 342.694L270.249 389.491C271.401 389.794 272.022 388.191 270.967 387.638L49.1682 271.331L277.339 368.519C278.461 368.997 279.299 367.432 278.28 366.763L123.491 265.192L291.482 351.544C292.527 352.081 293.481 350.69 292.605 349.908L117.585 193.687L311.054 338.568L166.031 199.178L320.432 319.607C321.327 320.305 322.509 319.208 321.878 318.264L196.062 129.732L333.907 300.924C334.673 301.875 336.151 300.884 335.561 299.814L249.831 144.264L350.72 287.391C351.431 288.4 352.981 287.477 352.433 286.371L266.114 112.193L372.337 281.454C372.96 282.446 374.488 281.743 374.139 280.624L302.97 52.82L395.634 279.955L338.897 64.362L412.767 266.325C413.172 267.433 414.826 267.049 414.701 265.876L390.521 38.8925L434.068 260.235C434.301 261.419 436.044 261.253 436.049 260.046L436.707 98.1033L455.508 257.864C455.65 259.069 457.412 259.028 457.498 257.818L475.817 0.597176L477.471 256.82C477.479 258.047 479.264 258.184 479.459 256.972L512.736 50.0045L498.822 261.862C498.743 263.062 500.459 263.355 500.783 262.197L567.196 24.3008L520.574 265.244C520.343 266.441 522.049 266.932 522.489 265.794L597.382 72.0321L540.889 273.145C540.562 274.311 542.201 274.947 542.746 273.865L639.569 81.3488L556.899 292.02L691.738 50.8459L578.919 293.706C578.41 294.801 579.918 295.692 580.632 294.719L698.605 133.986L616.198 273.249C615.606 274.251 616.912 275.286 617.752 274.48L761.511 136.451L620.981 311.515C620.239 312.439 621.438 313.658 622.375 312.93L778.84 191.41L626.86 338.777C625.997 339.614 627.073 340.982 628.089 340.341L773.356 248.759L639.648 356.269C638.708 357.025 639.664 358.492 640.736 357.936L850.948 248.803L651.042 374.99C650.014 375.64 650.818 377.216 651.947 376.765L846.225 299.105L658.968 395.325C657.892 395.878 658.539 397.51 659.701 397.175L898.817 328.393L664.172 416.798C663.057 417.218 663.48 418.886 664.661 418.724L880.39 389.068L670.196 437.944C669.013 438.219 669.252 439.969 670.466 439.917L924.976 428.913Z" fill="#81F2FF"/>
<path d="M536.793 39.1034L508.722 275.275C508.584 276.439 510.216 276.851 510.646 275.76L585.688 85.4093L529.507 277.32C529.164 278.489 530.814 279.138 531.36 278.05L632.142 77.1622L548.158 285.432C547.706 286.552 549.26 287.364 549.922 286.353L654.545 126.552L561.505 303.591L690.036 118.647L581.061 308.133C580.486 309.133 581.78 310.151 582.616 309.357L740.544 159.449L601.358 316.318C600.537 317.243 601.795 318.541 602.745 317.751L744.612 199.727L615.2 330.699C614.333 331.576 615.512 332.938 616.504 332.206L802.674 194.868L626.259 347.871C625.342 348.665 626.366 350.099 627.415 349.491L783.645 258.965L628.775 370.918L844.376 240.547L643.92 383.494C642.963 384.177 643.763 385.664 644.859 385.242L840.119 310.187L651.276 402.668C650.225 403.183 650.763 404.775 651.911 404.547L872.145 360.851L649.368 424.63L907.931 378.192L659.243 441.88C658.121 442.167 658.304 443.814 659.462 443.848L889.141 450.594L661.221 462.451C660.048 462.512 659.922 464.195 661.073 464.429L860.691 505.116L652.354 482.077L882.533 538.119L660.796 502.904C659.588 502.713 659.158 504.443 660.316 504.838L859.306 572.871L654.243 522.121C653.069 521.83 652.484 523.484 653.578 523.997L823.197 603.47L649.574 541.936C648.411 541.523 647.679 543.171 648.765 543.758L844.036 649.343L638.616 559.135C637.503 558.646 636.646 560.193 637.651 560.877L799.911 671.387L625.763 575.092C624.724 574.518 623.727 575.912 624.608 576.709L791.019 727.379L614.747 592.49C613.78 591.75 612.581 593.051 613.397 593.954L734.183 727.679L599.962 606.241C599.067 605.431 597.769 606.608 598.488 607.578L725.947 779.543L584.886 619.915C584.079 619.001 582.65 620.052 583.281 621.095L667.98 760.962L566.911 629.267C566.183 628.319 564.707 629.215 565.211 630.298L662.743 839.848L549.632 640.325C549.032 639.266 547.418 639.996 547.817 641.146L610.432 821.613L530.597 647.165C530.092 646.063 528.43 646.64 528.716 647.817L575.443 840.206L510.012 649.5C509.635 648.401 508.002 648.721 508.068 649.881L518.298 831.131L490.631 658.039C490.436 656.823 488.644 656.965 488.643 658.197L488.533 875.169L470.304 657.097C470.203 655.889 468.443 655.868 468.313 657.074L447.656 849.928L450.078 656.387C450.093 655.172 448.336 654.986 448.097 656.178L403.351 879.349L429.856 654.079C429.999 652.864 428.254 652.504 427.904 653.676L378.529 819.206L411.003 646.222C411.223 645.053 409.582 644.547 409.104 645.636L325.753 835.776L391.636 639.698C392.018 638.56 390.439 637.837 389.828 638.87L280.598 823.397L371.964 633.5C372.498 632.389 370.94 631.484 370.24 632.498L276.27 768.544L357.181 619.222C357.748 618.175 356.34 617.191 355.552 618.084L202.758 791.291L339.709 608.336C340.44 607.36 339.119 606.174 338.226 607.005L213.576 723.171L327.685 591.67C328.454 590.784 327.331 589.526 326.363 590.191L148.038 712.763L320.715 570.792L163.617 670.447L305.375 558.488C306.266 557.785 305.481 556.376 304.414 556.764L107.827 628.206L291.138 542.353C292.244 541.835 291.633 540.163 290.453 540.482L132.7 583.094L282.547 524.265C283.696 523.814 283.168 522.089 281.963 522.359L107.465 561.417L282.321 503.366C283.433 502.997 283.112 501.346 281.943 501.419L62.2246 515.259L286.644 481.925L80.4891 485.519L277.557 463.605C278.729 463.474 278.748 461.777 277.579 461.62L68.9523 433.543L276.619 443.028C277.825 443.083 278.078 441.351 276.907 441.059L132.296 405.062L279.165 423.183C280.37 423.331 280.749 421.61 279.594 421.238L53.2925 348.498L282.965 403.11C284.159 403.394 284.715 401.693 283.585 401.216L105.793 326.188L292.375 385.028C293.522 385.39 294.214 383.792 293.166 383.203L94.6688 271.613L300.118 366.094C301.226 366.604 302.108 365.063 301.107 364.366L144.184 254.984L311.768 349.549C312.823 350.144 313.83 348.703 312.908 347.917L161.825 219.131L332.923 339.697L145.886 165.559L338.686 319.814C339.629 320.568 340.853 319.315 340.077 318.39L222.087 177.661L328.697 281.914C329.529 282.727 330.845 281.704 330.261 280.697L238.126 121.689L364.13 285.903C364.851 286.844 366.32 285.969 365.836 284.886L291.308 118.198L389.938 286.498C390.546 287.535 392.13 286.815 391.749 285.675L341.625 135.728L408.508 278.791C409.019 279.885 410.671 279.304 410.385 278.131L358.716 66.0294L427.89 272.576C428.277 273.73 429.999 273.323 429.829 272.118L402.869 81.3271L447.981 269.953C448.263 271.13 450.002 270.889 449.953 269.68L440.738 40.5149L468.515 270.081C468.658 271.265 470.379 271.25 470.502 270.064L491.198 70.4031L488.926 269.171C488.912 270.386 490.669 270.57 490.906 269.378L536.793 39.1034Z" fill="#81F2FF"/>
<path d="M588.251 51.1815L531.11 282.05C530.828 283.187 532.397 283.798 532.958 282.769L631.026 103.193L551.48 286.656C550.996 287.774 552.552 288.622 553.229 287.609L678.145 100.771L568.981 297.018C568.394 298.074 569.835 299.072 570.618 298.151L694.249 152.557L579.974 316.692L730.447 149.115L598.815 323.624C598.121 324.545 599.279 325.716 600.207 325.032L775.506 195.864L617.941 334.263C617.012 335.079 618.099 336.523 619.14 335.857L774.547 236.337L629.892 350.249C628.923 351.012 629.925 352.51 631 351.907L832.764 238.715L638.737 368.66C637.729 369.335 638.567 370.885 639.683 370.411L805.933 299.958L638.376 391.841L868.48 289.213L651.844 406.199C650.81 406.757 651.419 408.332 652.559 408.049L855.62 357.787L656.766 426.137C655.659 426.518 655.995 428.164 657.163 428.08L881.115 412.031L652.149 447.693L914.475 433.677L659.809 466.034C658.659 466.18 658.637 467.836 659.782 468.014L886.852 503.19L659.22 486.691C658.049 486.606 657.715 488.26 658.828 488.636L851.86 553.763L647.988 505.067L869.44 589.22L653.782 526.78C652.607 526.44 651.966 528.103 653.066 528.639L842.083 620.823L644.897 545.035C643.768 544.602 642.982 546.17 644.005 546.815L802.459 646.709L637.807 564.118C636.704 563.565 635.773 565.109 636.777 565.826L817.449 694.811L624.8 579.826C623.756 579.203 622.714 580.631 623.627 581.435L770.931 711.213L610.068 594.066C609.108 593.367 607.946 594.627 608.721 595.527L755.163 765.67L596.979 609.963C596.112 609.11 594.761 610.252 595.458 611.249L698.729 758.92L580.603 621.775C579.815 620.86 578.381 621.867 578.975 622.919L684.125 809.362L563.948 633.473C563.261 632.467 561.712 633.333 562.209 634.446L628.91 783.737L544.952 640.525C544.347 639.494 542.771 640.199 543.137 641.337L613.931 861.364L526.435 649.355C525.971 648.23 524.279 648.754 524.533 649.945L564.285 836.783L506.698 653.782C506.335 652.626 504.613 652.991 504.751 654.195L527.26 850.894L485.983 653.546C485.745 652.408 484.086 652.523 484.007 653.683L471.681 834.802L465.693 659.615C465.651 658.385 463.854 658.303 463.701 659.525L436.685 874.809L445.64 656.16C445.689 654.949 443.945 654.71 443.667 655.89L399.254 844.694L425.657 652.947C425.823 651.743 424.103 651.341 423.718 652.494L351.643 868.394L405.878 648.149C406.17 646.962 404.483 646.388 403.991 647.507L334.47 805.636L388.145 638.015C388.508 636.882 386.943 636.176 386.334 637.198L280.047 815.534L369.736 629.14C370.257 628.058 368.779 627.145 368.045 628.094L236.775 797.651L350.984 620.55C351.653 619.514 350.219 618.423 349.398 619.342L239.283 742.685L338.087 604.549C338.779 603.581 337.503 602.43 336.611 603.218L163.517 756.14L322.099 591.581C322.945 590.702 321.781 589.362 320.793 590.076L182.699 689.888L312.235 573.552C313.108 572.768 312.149 571.38 311.107 571.92L118.958 671.433L307.907 551.97L139.665 631.375L294.212 537.86C295.183 537.272 294.579 535.777 293.472 536.03L89.5433 582.542L282.085 520.084C283.248 519.707 282.848 517.972 281.638 518.142L119.818 540.863L275.804 501.07C277 500.765 276.69 498.988 275.461 499.106L97.4662 516.224L278.171 480.305C279.32 480.076 279.207 478.398 278.037 478.326L58.2989 464.812L285.12 459.564L80.1103 437.566L278.374 440.259C279.554 440.275 279.784 438.593 278.643 438.292L75.108 384.561L279.996 419.725C281.186 419.929 281.651 418.241 280.525 417.807L141.495 364.155L284.983 400.349C286.16 400.645 286.75 398.984 285.65 398.472L70.1152 298.231L291.242 380.902C292.392 381.331 293.155 379.713 292.093 379.099L124.977 282.603L302.823 364.127C303.915 364.628 304.8 363.128 303.834 362.413L120.706 227.07L312.853 346.299C313.89 346.942 314.956 345.522 314.05 344.706L171.901 216.71L326.465 331.326C327.438 332.048 328.616 330.742 327.799 329.848L193.852 183.321L348.678 324.174L184.68 128.186L356.863 305.158C357.705 306.024 359.075 304.933 358.42 303.918L258.792 149.644L351.651 266.312C352.376 267.223 353.808 266.371 353.354 265.299L281.648 96.0926L386.315 274.665C386.915 275.688 388.48 275.002 388.134 273.867L334.853 99.2238L411.851 278.455C412.325 279.56 413.987 279.042 413.75 277.864L382.607 122.858L431.233 273.111C431.605 274.26 433.316 273.888 433.178 272.689L408.209 55.8167L451.237 269.347C451.477 270.54 453.236 270.35 453.217 269.134L450.125 76.4716L471.498 269.236C471.631 270.438 473.387 270.415 473.488 269.21L492.762 40.6705L491.857 271.909C491.852 273.101 493.562 273.3 493.831 272.139L539.127 76.5855L512.223 273.538C512.059 274.742 513.779 275.142 514.163 273.988L588.251 51.1815Z" fill="#81F2FF"/>
<path d="M588.379 50.4999L531.542 281.357C531.253 282.529 532.868 283.155 533.445 282.096L631.244 102.49L552.003 285.865C551.506 287.016 553.109 287.888 553.804 286.845L678.387 100.008L569.543 296.248C568.939 297.336 570.424 298.362 571.228 297.413L694.565 151.805L580.424 316.176L730.779 148.316L599.404 322.932C598.69 323.88 599.883 325.084 600.838 324.379L775.922 195.037L618.72 333.46C617.765 334.301 618.885 335.786 619.956 335.099L775.012 235.535L630.702 349.463C629.706 350.25 630.738 351.79 631.845 351.168L833.266 237.842L639.537 367.933C638.5 368.629 639.364 370.223 640.513 369.735L806.495 299.154L638.952 391.297L869.065 288.326L652.645 405.539C651.582 406.115 652.211 407.735 653.384 407.443L856.282 356.957L657.604 425.519C656.465 425.912 656.813 427.606 658.015 427.519L881.859 411.201L652.802 447.165L915.265 432.818L660.691 465.481C659.508 465.633 659.487 467.338 660.666 467.52L887.711 502.406L660.151 486.193C658.945 486.107 658.604 487.811 659.75 488.196L852.761 553.052L648.71 504.578L870.395 588.508L654.854 526.389C653.644 526.04 652.987 527.753 654.119 528.304L843.061 620.163L645.939 544.678C644.777 544.233 643.97 545.849 645.023 546.511L803.445 646.112L638.926 563.842C637.79 563.274 636.834 564.864 637.869 565.601L818.503 694.224L625.868 579.568C624.792 578.928 623.722 580.4 624.662 581.226L771.977 710.694L611.077 593.822C610.088 593.103 608.894 594.401 609.693 595.327L756.268 765.202L598.023 609.818C597.13 608.94 595.74 610.118 596.459 611.143L699.792 758.518L581.619 621.657C580.806 620.716 579.331 621.754 579.943 622.836L685.241 809.007L564.959 633.427C564.25 632.392 562.657 633.285 563.171 634.43L629.962 783.434L545.912 640.467C545.289 639.407 543.667 640.135 544.045 641.305L615.07 861.126L527.383 649.391C526.904 648.234 525.164 648.775 525.426 650.001L565.365 836.591L507.61 653.84C507.235 652.65 505.463 653.029 505.606 654.268L528.336 850.756L486.835 653.547C486.589 652.376 484.881 652.497 484.801 653.69L472.705 834.723L466.51 659.802C466.465 658.535 464.616 658.454 464.46 659.711L437.737 874.796L446.416 656.309C446.466 655.063 444.67 654.819 444.386 656.034L400.248 844.709L426.388 653.124C426.557 651.885 424.786 651.473 424.392 652.66L352.637 868.482L406.554 648.364C406.854 647.141 405.117 646.553 404.612 647.706L335.377 805.709L388.801 638.163C389.173 636.997 387.561 636.272 386.936 637.325L280.935 815.679L370.33 629.311C370.864 628.197 369.342 627.259 368.587 628.237L237.615 797.839L351.475 620.803C352.161 619.736 350.684 618.614 349.84 619.562L240.057 742.837L338.602 604.705C339.313 603.708 337.999 602.525 337.081 603.337L164.264 756.394L322.512 591.775C323.382 590.87 322.183 589.491 321.166 590.228L183.375 690.079L312.676 573.667C313.574 572.858 312.585 571.431 311.513 571.988L119.574 671.692L308.487 551.927L140.244 631.585L294.614 537.918C295.613 537.311 294.989 535.773 293.85 536.034L90.0329 582.785L282.298 520.155C283.494 519.766 283.08 517.981 281.834 518.157L120.274 541.044L275.941 501.129C277.172 500.813 276.85 498.984 275.586 499.107L97.8789 516.418L278.427 480.299C279.61 480.063 279.491 478.335 278.287 478.262L58.6255 465.024L285.573 459.495L80.4162 437.736L278.565 440.183C279.78 440.198 280.014 438.467 278.84 438.159L75.3457 384.705L280.112 419.59C281.337 419.799 281.814 418.06 280.654 417.614L141.747 364.206L285.068 400.17C286.279 400.474 286.884 398.763 285.751 398.238L70.2439 298.331L291.278 380.658C292.462 381.098 293.246 379.431 292.151 378.801L125.119 282.627L302.916 363.864C304.042 364.378 304.951 362.833 303.955 362.099L120.777 227.066L312.909 345.959C313.976 346.62 315.072 345.157 314.138 344.318L171.989 216.637L326.545 330.953C327.547 331.694 328.758 330.349 327.916 329.43L193.912 183.202L349.002 323.947L184.666 128.046L356.966 304.703C357.834 305.593 359.243 304.468 358.567 303.425L258.848 149.425L351.774 265.883C352.521 266.819 353.994 265.94 353.526 264.838L281.652 95.8143L386.476 274.152C387.095 275.204 388.705 274.495 388.348 273.328L334.892 98.8819L412.046 277.87C412.536 279.006 414.245 278.471 414 277.259L382.703 122.471L431.453 272.478C431.837 273.659 433.598 273.275 433.454 272.04L408.238 55.3592L451.491 268.654C451.74 269.882 453.55 269.684 453.529 268.432L450.203 75.9747L471.793 268.533C471.932 269.77 473.739 269.744 473.842 268.504L492.822 40.1002L492.201 271.22C492.198 272.447 493.958 272.649 494.233 271.453L539.258 75.9792L512.622 272.773C512.454 274.012 514.226 274.422 514.619 273.235L588.379 50.4999Z" fill="#81F2FF"/>
<path d="M478.689 32.733L483.538 270.435C483.563 271.641 485.285 271.828 485.568 270.655L533.548 71.8571L504.469 269.493C504.286 270.734 506.06 271.161 506.462 269.973L578.443 57.2581L524.098 274.983C523.797 276.19 525.497 276.797 526.028 275.672L607.475 103.103L539.766 291.416L641.553 90.3601L559.848 293.029C559.404 294.13 560.868 294.983 561.608 294.055L697.25 123.806L581.231 298.199C580.526 299.258 581.993 300.403 582.849 299.462L706.853 163.159L596.947 310.555C596.188 311.573 597.584 312.794 598.492 311.906L763.719 150.311L610.261 326.11C609.44 327.05 610.687 328.366 611.67 327.597L753.729 216.462L615.743 348.829L811.364 189.809L632.656 359.041C631.778 359.873 632.804 361.275 633.862 360.689L816.779 259.409L642.617 377.057C641.618 377.731 642.393 379.278 643.531 378.882L855.524 305.186L643.581 399.208L893.387 317.42L655.942 414.858C654.838 415.311 655.259 416.964 656.445 416.834L884.783 391.768L660.781 435.005C659.593 435.234 659.705 436.967 660.911 437.043L864.132 449.734L654.487 455.724L890.342 479.418L666.068 475.201C664.809 475.178 664.617 477.003 665.853 477.241L872.132 517.069L662.19 495.175C660.952 495.046 660.591 496.815 661.78 497.182L840.582 552.388L660.376 515.501C659.131 515.246 658.62 517.03 659.81 517.474L867.579 594.963L651.833 534.071C650.628 533.731 649.975 535.43 651.097 535.985L826.901 622.912L641.235 551.667C640.094 551.229 639.277 552.792 640.288 553.479L825.835 679.63L632.766 570.497C631.676 569.88 630.638 571.377 631.598 572.182L769.554 687.79L619.985 586.178C618.956 585.48 617.801 586.864 618.672 587.751L768.566 740.325L606.939 601.859C605.986 601.043 604.679 602.317 605.471 603.29L708.552 729.931L590.363 613.589C589.487 612.726 588.109 613.849 588.777 614.882L714.276 808.829L574.776 627.005C574.013 626.011 572.472 626.984 573.043 628.1L659.914 797.995L556.828 636.419C556.157 635.367 554.544 636.192 555.003 637.352L627.813 821.261L536.685 641.513C536.144 640.446 534.525 641.005 534.757 642.178L569.928 820.173L518.671 652.816C518.3 651.604 516.493 652.003 516.667 653.259L546.523 867.931L498.358 654.643C498.083 653.426 496.285 653.655 496.325 654.902L502.524 848.572L478.188 656.75C478.031 655.509 476.213 655.57 476.139 656.818L462.688 883.857L457.798 657.285C457.771 656.027 455.941 655.908 455.751 657.152L429.77 827.691L438.009 652.027C438.067 650.804 436.322 650.521 435.99 651.7L379.763 851.412L417.876 648.257C418.104 647.043 416.391 646.531 415.915 647.67L333.302 845.391L397.462 644.919C397.849 643.71 396.132 643.009 395.562 644.143L321.425 791.632L380.861 632.702C381.29 631.554 379.714 630.751 379.038 631.773L251.723 824.343L361.973 624.376C362.579 623.277 361.064 622.256 360.273 623.23L253.02 755.342L347.785 609.431C348.444 608.417 347.119 607.295 346.227 608.111L186.634 754.094L338.112 589.516L196.219 710.004L321.086 579.574C321.895 578.73 320.894 577.406 319.861 577.953L135.088 675.862L304.592 565.605C305.647 564.919 304.785 563.302 303.628 563.795L153.496 627.717L293.528 548.872C294.635 548.249 293.851 546.565 292.661 547.012L125.49 609.727L290.538 528.109C291.619 527.574 291.058 525.936 289.876 526.177L74.2724 570.243L292.056 506.164L88.2579 538.245L280.289 489.324C281.466 489.024 281.244 487.291 280.03 487.297L69.635 488.334L276.453 469.032C277.69 468.917 277.701 467.114 276.465 466.984L128.468 451.347L276.214 448.991C277.462 448.971 277.604 447.162 276.374 446.948L42.3517 406.223L277.162 428.536C278.419 428.656 278.745 426.843 277.525 426.517L91.292 376.851L284.057 409.303C285.277 409.508 285.756 407.781 284.603 407.329L72.7186 324.308L289.075 389.422C290.277 389.784 290.957 388.087 289.838 387.518L119.486 300.979L298.363 371.398C299.523 371.854 300.344 370.242 299.293 369.572L132.008 263.009L318.241 358.818L108.802 212.125L320.954 338.168C322.022 338.803 323.092 337.352 322.169 336.519L185.99 213.576L305.891 302.015C306.854 302.726 308.05 301.496 307.312 300.552L194.141 155.89L341.551 301.02C342.42 301.877 343.793 300.776 343.145 299.741L246.361 145.074L367.211 297.994C367.978 298.965 369.491 298.006 368.941 296.898L298.648 155.485L384.561 287.763C385.238 288.805 386.84 287.977 386.382 286.822L305.943 84.0509L402.927 278.883C403.485 280.005 405.183 279.345 404.838 278.141L351.814 93.1024L422.506 273.512C422.96 274.671 424.699 274.178 424.478 272.953L383.696 47.4198L442.914 270.825C443.228 272.011 444.981 271.751 444.938 270.525L437.835 70.0578L463.041 267.04C463.2 268.281 465.017 268.218 465.09 266.969L478.689 32.733Z" fill="#81F2FF"/>
<path d="M448.067 55.0044L469.231 279.4C469.344 280.601 471.075 280.661 471.271 279.47L502.759 88.2266L489.068 276.873C488.977 278.123 490.778 278.419 491.091 277.204L544.259 71.2626L508.091 280.754C507.879 281.98 509.619 282.46 510.066 281.299L574.96 112.655L523.989 295.741L606.345 98.2046L543.23 295.527C542.868 296.658 544.391 297.402 545.06 296.421L661.434 125.99L564.071 298.672C563.446 299.781 564.993 300.815 565.778 299.813L673.279 162.591L579.84 309.314C579.158 310.384 580.64 311.5 581.48 310.548L726.24 146.449L593.508 323.238C592.758 324.237 594.099 325.458 595.023 324.618L721.401 209.801L599.96 344.81L774.126 180.53L616.967 352.999C616.152 353.893 617.279 355.215 618.291 354.553L784.118 246.071L627.697 369.422C626.75 370.168 627.637 371.653 628.743 371.175L824.013 286.72L629.846 390.58L860.728 295.662L642.976 404.375C641.909 404.908 642.45 406.525 643.623 406.308L857.774 366.68L649.03 423.175C647.863 423.491 648.102 425.212 649.311 425.198L842.265 423.023L644.125 443.345L869.163 449.306L657.054 460.951C655.796 461.02 655.739 462.854 656.99 463.001L854.547 486.239L654.704 480.188C653.461 480.15 653.23 481.942 654.443 482.22L827.133 521.895L654.539 499.635C653.28 499.472 652.901 501.289 654.12 501.644L855.677 560.332L647.634 517.847C646.408 517.597 645.881 519.339 647.041 519.81L819.104 589.646L638.705 535.27C637.534 534.917 636.834 536.536 637.893 537.147L822.057 643.439L632.082 553.808C630.949 553.273 630.025 554.842 631.041 555.574L769.322 655.1L621.014 569.573C619.937 568.952 618.887 570.418 619.821 571.238L772.057 704.926L609.766 585.417C608.755 584.673 607.545 586.04 608.407 586.953L714.49 699.275L594.781 597.648C593.843 596.852 592.552 598.074 593.294 599.054L725.424 773.602L580.974 611.563C580.14 610.628 578.675 611.712 579.326 612.783L673.18 767.139L564.578 621.743C563.832 620.743 562.284 621.684 562.827 622.807L644.401 791.418L545.726 627.863C545.109 626.839 543.535 627.515 543.853 628.668L589.501 794.432L529.497 640.111C529.037 638.929 527.264 639.461 527.531 640.7L570.671 841.3L510.308 643.174C509.945 641.981 508.168 642.342 508.3 643.583L527.646 826.039L491.304 646.606C491.056 645.38 489.248 645.574 489.266 646.825L492.382 862.241L471.976 648.587C471.856 647.334 470.022 647.35 469.925 648.605L457.28 811.345L452.822 644.847C452.789 643.623 451.028 643.469 450.784 644.669L411.575 837.306L433.423 642.718C433.561 641.49 431.815 641.105 431.424 642.277L367.15 834.85L413.755 641.139C414.051 639.905 412.288 639.332 411.803 640.505L352.145 784.763L397.205 630.521C397.549 629.345 395.918 628.66 395.319 629.729L288.414 820.615L378.62 624.045C379.144 622.904 377.557 621.998 376.84 623.028L284.821 755.172L364.185 610.71C364.767 609.651 363.363 608.629 362.534 609.508L221.858 758.628L353.827 592.168L227.855 716.2L336.802 584.19C337.546 583.288 336.451 582.041 335.461 582.663L167.572 688.135L319.937 572.223C320.938 571.462 319.96 569.912 318.842 570.489L181.642 641.249L308.201 557.161C309.259 556.458 308.354 554.836 307.2 555.369L153.86 626.167L304.134 537.535C305.173 536.923 304.492 535.33 303.331 535.658L102.592 592.349L304.382 516.442L113.602 561.066L291.661 501.449C292.812 501.063 292.464 499.351 291.253 499.446L92.4763 515.096L286.496 482.45C287.722 482.244 287.6 480.446 286.358 480.406L145.614 475.954L284.836 463.449C286.08 463.337 286.088 461.522 284.846 461.399L60.8984 439.233L284.229 443.947C285.492 443.973 285.683 442.141 284.442 441.906L105.199 407.995L289.541 425.215C290.773 425.33 291.123 423.572 289.941 423.207L83.936 359.527L292.834 405.955C294.06 406.227 294.613 404.485 293.455 404.001L126.601 334.164L300.426 388.202C301.616 388.572 302.317 386.903 301.219 386.312L135.807 297.327L318.887 375.057L110.273 250.756L319.548 355.078C320.66 355.633 321.62 354.107 320.638 353.344L183.481 246.737L302.9 321.919C303.913 322.557 305.016 321.242 304.21 320.356L187.17 191.532L336.59 318.403C337.52 319.193 338.808 317.993 338.086 317.009L235.873 177.638L360.682 313.662C361.518 314.574 362.957 313.506 362.326 312.441L286.123 183.845L376.421 302.711C377.173 303.701 378.709 302.758 378.167 301.64L288.041 115.679L393.222 292.947C393.861 294.024 395.505 293.241 395.073 292.066L332.119 121.047L411.449 286.498C411.987 287.621 413.685 287.002 413.374 285.796L359.122 75.552L430.669 282.57C431.069 283.73 432.798 283.342 432.665 282.122L411.981 93.2101L449.507 277.469C449.756 278.694 451.564 278.498 451.544 277.247L448.067 55.0044Z" fill="#81F2FF"/>
<path d="M909.614 526.098L659.808 502.515C658.607 502.401 658.225 504.091 659.357 504.506L862.058 578.808L658.109 524.418C656.897 524.095 656.27 525.809 657.404 526.344L871.933 627.555L650.065 544.263C648.9 543.826 648.103 545.446 649.16 546.102L820.453 652.423L631.503 558.881L829.688 689.626L627.064 579.525C626.021 578.959 625.006 580.315 625.844 581.156L787.975 743.895L618.855 600.994C617.883 600.173 616.578 601.499 617.415 602.458L745.629 749.209L604.071 615.942C603.147 615.072 601.774 616.319 602.552 617.322L752.23 810.276L586.311 628.059C585.47 627.136 584.02 628.225 584.672 629.29L684.194 791.855L562.262 631.492L705.152 855.39L549.276 647.617C548.55 646.649 547.04 647.509 547.501 648.627L631.651 852.678L529.286 655.846C528.73 654.777 527.105 655.37 527.368 656.546L579.073 887.72L506.18 654.563L561.709 925.877L488.205 665.24C487.881 664.092 486.191 664.322 486.185 665.514L484.926 907.919L466.609 667.823C466.517 666.618 464.782 666.531 464.569 667.721L426.742 879.325L445.713 659.174L392.517 903.185L424.017 668.316C424.185 667.068 422.394 666.669 422.015 667.87L355.301 879.592L403.615 661.938C403.884 660.723 402.168 660.161 401.667 661.301L322.132 842.317L382.658 657.466C383.053 656.259 381.34 655.547 380.763 656.678L274.319 865.448L364.255 646.41C364.731 645.252 363.118 644.409 362.438 645.46L249.962 819.507L347.107 633.33C347.673 632.246 346.214 631.256 345.415 632.182L190.726 811.562L328.552 622.134C329.289 621.122 327.92 619.92 327.011 620.782L188.961 751.671L313.687 606.933C314.499 605.991 313.255 604.685 312.275 605.449L134.093 744.312L298.932 591.395C299.852 590.541 298.735 589.097 297.677 589.773L152.198 682.748L288.59 572.735C289.548 571.963 288.589 570.466 287.487 571.011L68.9274 679.24L276.554 554.809C277.629 554.165 276.837 552.522 275.664 552.962L86.8122 623.645L268.86 534.948C269.981 534.402 269.346 532.705 268.142 533.029L66.3254 587.244L265.81 513.365C266.932 512.95 266.562 511.277 265.37 511.374L74.4337 526.788L256.455 493.163C257.701 492.933 257.511 491.092 256.243 491.122L27.2643 496.541L256.882 471.745C258.123 471.612 258.1 469.799 256.857 469.696L52.8242 452.819L257.124 450.436C258.374 450.421 258.522 448.609 257.29 448.392L20.6886 406.876L259.059 429.095C260.312 429.212 260.639 427.407 259.425 427.077L83.4403 379.183L266.788 409.035C267.996 409.231 268.476 407.531 267.343 407.066L64.6322 323.986L273.18 388.492C274.36 388.857 275.065 387.214 273.987 386.611L76.5282 276.081L279.275 367.663C280.432 368.186 281.325 366.56 280.263 365.864L134.227 270.123L293.851 351.689C294.943 352.246 295.92 350.772 294.982 349.984L108.38 193.229L304.911 333.059C305.934 333.787 307.121 332.398 306.243 331.501L180.447 202.894L322.092 319.926C323.023 320.695 324.29 319.508 323.581 318.529L189.746 133.559L343.768 311.924L234.739 148.9L356.441 295.563C357.188 296.462 358.618 295.619 358.192 294.531L277.835 89.0271L373.112 280.283C373.673 281.409 375.378 280.738 375.02 279.532L326.012 114.09L391.954 270.811C392.447 271.982 394.209 271.396 393.901 270.163L348.213 86.9436L413.913 269.923C414.32 271.058 416.012 270.687 415.907 269.486L395.707 38.089L436.556 273.753L427.515 56.5799L455.658 263.909C455.822 265.112 457.569 265.09 457.701 263.883L481.997 43.097L477.287 262.446C477.26 263.689 479.05 263.906 479.321 262.693L513.627 109.129L498.246 264.636C498.124 265.879 499.905 266.227 500.258 265.029L571.226 24.4264L519.462 268.159C519.199 269.395 520.964 269.925 521.426 268.75L596.076 79.1873L538.753 277.554C538.41 278.743 540.071 279.415 540.651 278.322L653.308 66.0732L558.861 285.257C558.364 286.41 559.971 287.28 560.664 286.232L672.095 117.833L576.583 297.085C575.997 298.185 577.506 299.186 578.291 298.218L710.33 135.511L587.626 318.901L766.382 117.348L608.577 324.667C607.825 325.656 609.144 326.885 610.076 326.063L755.57 197.964L648.292 313.108C647.476 313.985 648.561 315.313 649.583 314.688L814.967 213.44L644.95 350.552C644 351.318 644.937 352.807 646.039 352.282L820.001 269.4L644.943 377.759C643.891 378.41 644.671 380.023 645.834 379.602L802.809 322.875L653.517 397.119C652.404 397.672 653.043 399.357 654.243 399.034L876.699 339.111L660.53 417.368C659.352 417.795 659.813 419.557 661.049 419.352L861.702 386.033L663.815 438.448C662.611 438.767 662.902 440.551 664.144 440.47L905.679 424.903L664.23 460.058C663.016 460.235 663.074 462.006 664.297 462.103L875.465 478.844L665.661 481.517C664.41 481.533 664.265 483.346 665.497 483.56L909.614 526.098Z" fill="#81F2FF"/>
<path d="M928.957 559.921L666.957 517.909C665.766 517.718 665.275 519.379 666.378 519.867L875.249 612.197L663.504 540.736C662.316 540.335 661.579 542.004 662.676 542.612L882.317 664.23L653.742 561.056C652.608 560.544 651.708 562.108 652.72 562.832L826.379 686.905L633.717 575.425L833.563 726.731L627.296 596.661C626.292 596.028 625.19 597.316 625.972 598.209L785.903 781.051L616.964 618.401C616.048 617.519 614.66 618.758 615.433 619.768L740.927 783.75L600.411 633.125C599.545 632.197 598.094 633.353 598.806 634.404L743.702 848.538L580.995 644.741C580.217 643.765 578.699 644.758 579.28 645.862L673.285 824.475L555.802 647.184L691.017 892.844L540.77 662.905C540.108 661.892 538.545 662.652 538.933 663.798L613.767 884.957L519.217 670.182C518.731 669.08 517.071 669.566 517.258 670.756L555.977 918.276L495.139 667.652L535.072 957.287L475.386 677.272C475.137 676.106 473.436 676.225 473.352 677.415L455.409 933.114L452.537 678.463C452.523 677.254 450.798 677.054 450.508 678.228L396.067 899.008L431.12 668.372L358.377 921.802L407.768 675.865C408.016 674.63 406.255 674.116 405.799 675.29L320.784 894.399L386.743 667.841C387.091 666.646 385.414 665.974 384.841 667.079L288.39 852.859L365.082 661.571C365.554 660.392 363.891 659.57 363.242 660.662L236.435 873.956L346.449 648.791C346.998 647.667 345.443 646.721 344.697 647.726L213.919 823.889L329.262 633.973C329.897 632.928 328.505 631.845 327.648 632.717L152.056 811.465L310.623 620.851C311.424 619.888 310.136 618.6 309.173 619.401L154.296 748.248L296.008 603.885C296.879 602.998 295.723 601.614 294.695 602.313L96.9941 736.74L281.616 586.516C282.589 585.724 281.568 584.211 280.47 584.816L120.281 673.12L271.93 566.252C272.935 565.544 272.076 563.988 270.941 564.461L32.7942 663.725L260.609 546.556C261.723 545.982 261.04 544.293 259.841 544.655L55.4409 606.379L253.857 525.167C255.011 524.694 254.488 522.96 253.265 523.205L36.3488 566.627L251.965 502.328C253.112 501.986 252.851 500.293 251.655 500.312L49.0284 503.491L243.808 480.438C245.067 480.289 244.996 478.44 243.73 478.387L1.40435 468.397L245.611 457.963C246.857 457.909 246.952 456.099 245.718 455.916L31.3245 424.084L247.338 435.587C248.587 435.654 248.852 433.855 247.636 433.559L0.613022 373.482L250.876 413.308C252.119 413.506 252.562 411.727 251.372 411.318L68.6186 348.602L260.226 392.711C261.419 392.986 262.008 391.32 260.908 390.783L52.5813 289.163L268.385 371.589C269.539 372.029 270.349 370.435 269.312 369.763L68.3924 239.509L276.372 350.212C277.492 350.809 278.489 349.244 277.474 348.481L129.587 237.18L292.607 334.294C293.66 334.921 294.731 333.514 293.846 332.666L107.62 154.401L305.598 315.572C306.572 316.364 307.847 315.055 307.029 314.103L182.881 169.516L324.426 302.813C325.306 303.642 326.647 302.539 326.003 301.516L197.423 97.1068L347.483 295.558L243.775 116.348L362.163 279.477C362.85 280.423 364.331 279.674 363.977 278.56L293.275 56.2194L380.817 264.838C381.304 265.998 383.049 265.439 382.77 264.212L342.315 85.921L401.305 256.246C401.721 257.447 403.517 256.976 403.29 255.725L367.563 58.8408L424.379 256.536C424.712 257.695 426.424 257.434 426.397 256.229L420.942 10.6216L447.849 261.695L453.187 32.279L468.681 253.097C468.766 254.308 470.51 254.399 470.721 253.204L511.508 21.803L491.485 253.145C491.378 254.383 493.149 254.715 493.498 253.523L540.312 93.5338L513.367 256.911C513.164 258.144 514.919 258.606 515.349 257.434L606.79 8.23948L535.389 262.14C535.047 263.356 536.773 264 537.311 262.857L629.223 67.6321L555.069 273.213C554.649 274.377 556.263 275.156 556.913 274.103L690.416 57.7329L575.62 282.758C575.05 283.877 576.598 284.849 577.357 283.849L706.666 113.548L593.462 296.365C592.805 297.424 594.246 298.521 595.092 297.606L745.738 134.789L603.916 319.598L806.033 119.49L625.215 327.542C624.4 328.48 625.637 329.791 626.621 329.032L789.125 203.681L667.92 317.935C667.048 318.757 668.045 320.153 669.105 319.595L850.642 224.051L661.743 357.147C660.745 357.85 661.583 359.397 662.717 358.944L852.116 283.351L659.785 385.788C658.694 386.369 659.367 388.029 660.556 387.685L830.344 338.511L667.449 406.734C666.302 407.214 666.831 408.937 668.049 408.693L907.078 360.672L673.382 428.499C672.179 428.848 672.525 430.637 673.771 430.512L888.067 409.08L675.424 450.871C674.202 451.111 674.377 452.91 675.622 452.91L931.737 453.039L674.45 473.593C673.227 473.691 673.17 475.462 674.385 475.638L896.215 507.8L674.381 496.226C673.132 496.161 672.87 497.96 674.086 498.254L928.957 559.921Z" fill="#81F2FF"/>
<path d="M656.125 63.7075L561.038 289.302C560.569 290.414 562.066 291.286 562.802 290.33L691.287 123.446L581.013 297.249C580.341 298.308 581.787 299.421 582.638 298.499L739.586 128.531L597.148 310.589C596.382 311.569 597.687 312.815 598.63 312.004L747.665 183.769L605.173 332.356L785.022 186.067L623.221 342.423C622.368 343.247 623.357 344.623 624.411 344.076L823.349 240.821L640.963 356.304C639.888 356.985 640.762 358.628 641.928 358.116L815.89 281.82L650.555 374.473C649.448 375.094 650.226 376.778 651.416 376.336L874.705 293.564L656.599 394.61C655.466 395.135 656.069 396.845 657.281 396.543L837.612 351.539L652.518 418.124L902.931 350.633L663.913 434.88C662.772 435.282 663.139 436.981 664.343 436.877L878.869 418.3L665.723 455.942C664.536 456.152 664.614 457.88 665.815 457.982L896.103 477.541L657.575 477.12L926.556 504.894L662.425 496.997C661.233 496.961 660.945 498.642 662.081 499.006L887.333 571.15L658.517 517.907C657.34 517.633 656.736 519.262 657.807 519.822L843.651 616.968L644.153 534.793L855.846 655.837L646.566 557.799C645.425 557.265 644.507 558.853 645.539 559.575L822.967 683.589L634.607 574.938C633.529 574.316 632.478 575.785 633.414 576.604L778.529 703.562L624.34 593.205C623.308 592.466 622.114 593.887 623.02 594.777L786.065 754.874L608.599 607.094C607.637 606.293 606.349 607.578 607.148 608.542L736.137 764.1L591.337 619.213C590.473 618.348 589.09 619.443 589.734 620.483L711.381 816.946L575.482 633.28C574.737 632.274 573.18 633.219 573.729 634.344L655.079 801.042L556.939 642.668C556.284 641.611 554.664 642.405 555.099 643.57L632.148 849.992L538.129 651.894C537.591 650.761 535.878 651.393 536.206 652.604L580.11 815.091L517.684 656.021C517.235 654.876 515.519 655.341 515.709 656.556L552.444 891.623L497.441 662.033C497.149 660.815 495.346 661.077 495.412 662.328L505.901 858.675L476.664 663.372C476.479 662.139 474.67 662.235 474.617 663.481L465.993 867.092L455.638 659.814C455.578 658.619 453.872 658.47 453.607 659.636L412.058 841.826L434.034 662.735C434.188 661.477 432.375 661.106 432.023 662.324L370.065 876.899L414.198 656.009C414.442 654.785 412.707 654.263 412.235 655.418L336.829 840.281L394.394 649.541C394.755 648.343 393.071 647.659 392.495 648.769L284.62 856.752L375.051 641.493C375.538 640.333 373.915 639.479 373.235 640.539L277.213 790.188L358.643 628.348C359.194 627.254 357.715 626.286 356.932 627.228L220.289 791.534L341.347 616.375C342.05 615.358 340.694 614.193 339.795 615.04L179.155 766.418L323.656 604.637C324.501 603.69 323.219 602.35 322.236 603.154L190.511 710.93L313.105 586.3C313.964 585.427 312.851 584.052 311.818 584.71L111.316 712.473L298.926 570.552C299.927 569.795 298.959 568.246 297.839 568.814L141.434 648.18L291.784 550.641C292.798 549.983 292.045 548.419 290.898 548.801L79.5779 619.204L290.841 528.003L107.05 581.79L279.176 511.461C280.258 511.019 279.883 509.402 278.717 509.482L63.9092 524.106L269.694 491.443C270.936 491.246 270.807 489.419 269.55 489.398L101.37 486.576L266.353 471.104C267.618 470.986 267.587 469.129 266.319 469.052L82.5895 457.943L272.086 450.369C273.291 450.32 273.445 448.596 272.267 448.335L51.0002 399.391L282.475 430.393L77.5431 375.182L278.708 409.683C279.905 409.888 280.408 408.215 279.297 407.726L80.9482 320.484L283.647 389.063C284.824 389.461 285.568 387.82 284.492 387.197L151.72 310.371L291.822 370.16C292.971 370.65 293.837 369.055 292.8 368.359L89.7017 231.903L301.302 351.389C302.402 352.01 303.438 350.486 302.455 349.692L147.989 224.802L315.764 336.187C316.795 336.871 317.935 335.488 317.067 334.607L152.543 167.651L328.82 319.667C329.77 320.487 331.082 319.214 330.291 318.239L206.259 165.318L345.059 306.623C345.933 307.512 347.34 306.373 346.652 305.334L233.927 134.885L368.791 302.909L233.433 77.3536L380.16 284.885C380.878 285.9 382.445 285.01 381.942 283.874L305.354 111.045L381.083 244.551C381.674 245.592 383.268 244.956 382.977 243.794L337.173 60.2551L414.992 258.597C415.438 259.733 417.14 259.286 416.97 258.078L390.771 71.9625L440.35 266.542C440.655 267.741 442.428 267.481 442.376 266.245L435.542 103.644L460.914 264.213C461.108 265.44 462.907 265.337 462.959 264.095L472.314 39.5776L481.857 263.591C481.91 264.842 483.73 264.931 483.905 263.691L511.625 67.2947L502.477 266.724C502.419 267.967 504.208 268.225 504.505 267.016L560.715 37.7224L522.749 272.703C522.554 273.915 524.26 274.391 524.72 273.253L602.105 81.6688L543.197 277.622C542.837 278.819 544.523 279.502 545.097 278.391L656.125 63.7075Z" fill="#81F2FF"/>
<path d="M703.579 90.3223L581.25 302.384C580.647 303.429 582.025 304.48 582.873 303.623L731.061 153.96L600.085 312.747C599.288 313.715 600.585 314.998 601.543 314.189L778.357 164.995L614.442 327.985C613.56 328.862 614.701 330.26 615.737 329.572L779.523 220.808L619.706 350.578L816.308 227.722L636.366 362.806C635.417 363.518 636.228 365.006 637.341 364.594L847.549 286.806L652.25 378.78C651.099 379.322 651.762 381.061 652.982 380.698L835.064 326.563L659.515 397.999C658.339 398.477 658.902 400.244 660.138 399.954L891.967 345.51L663.015 418.73C661.826 419.11 662.212 420.882 663.452 420.732L847.972 398.438L656.05 441.555L912.899 405.639L665.278 459.596C664.097 459.853 664.25 461.584 665.458 461.63L880.632 469.8L664.463 480.72C663.26 480.78 663.123 482.505 664.301 482.755L890.386 530.72L653.751 500.724L917.212 561.639L656.1 521.049C654.921 520.865 654.426 522.498 655.508 522.999L870.075 622.52L649.629 541.313C648.494 540.895 647.693 542.436 648.687 543.125L821.049 662.567L633.281 556.287L828.33 702.648L632.823 579.414C631.757 578.743 630.649 580.205 631.584 581.049L792.263 726.108L618.83 594.938C617.838 594.187 616.613 595.514 617.441 596.444L745.691 740.417L606.378 611.792C605.445 610.93 604.084 612.192 604.873 613.187L746.806 792.267L589.036 623.62C588.181 622.706 586.743 623.822 587.416 624.877L696.12 795.23L570.405 633.506C569.654 632.541 568.146 633.456 568.656 634.567L665.001 844.599L552.927 645.499C552.313 644.407 550.651 645.152 551.056 646.337L611.106 821.836L533.363 652.514C532.844 651.384 531.139 651.971 531.426 653.181L582.282 867.565L513.555 659.337C513.161 658.145 511.383 658.56 511.558 659.803L534.974 826.479L492.755 660.896C492.451 659.704 490.691 659.953 490.729 661.182L498.03 898.99L471.923 664.352C471.785 663.106 469.962 663.143 469.874 664.393L455.933 860.525L451.14 663.104C451.11 661.857 449.303 661.728 449.096 662.958L415.289 863.928L430.718 656.966C430.807 655.773 429.133 655.413 428.724 656.537L364.904 832.169L408.918 657.185C409.228 655.956 407.474 655.363 406.974 656.528L318.885 861.763L390.069 648.051C390.464 646.867 388.806 646.134 388.195 647.222L290.447 821.306L371.221 639.177C371.728 638.033 370.141 637.146 369.432 638.176L236.598 831.176L353.024 628.793C353.652 627.702 352.147 626.654 351.342 627.621L237.502 764.208L338.374 613.715C339.056 612.698 337.709 611.554 336.815 612.391L180.852 758.484L322.696 599.689C323.519 598.768 322.318 597.443 321.321 598.172L143.149 728.461L306.597 585.848C307.553 585.013 306.447 583.525 305.372 584.201L161.298 674.809L298.401 566.344C299.362 565.584 298.428 564.082 297.321 564.607L82.5232 666.52L286.284 548.96C287.372 548.332 286.603 546.675 285.422 547.1L120.382 606.459L281.667 528.316C282.754 527.789 282.201 526.144 281.016 526.381L62.5964 570.035L283.539 505.736L94.4959 536.316L274.015 487.876C275.144 487.571 274.972 485.92 273.805 485.854L58.8414 473.728L267.088 466.836C268.345 466.795 268.444 464.965 267.199 464.789L100.667 441.133L266.295 446.24C267.565 446.279 267.765 444.433 266.516 444.199L85.5823 410.392L274.555 426.375C275.757 426.477 276.124 424.784 274.987 424.38L61.4976 348.375L287.341 407.842L90.8377 327.644L286.172 386.824C287.334 387.176 288.041 385.579 286.999 384.956L100.999 273.791L293.629 366.977C294.748 367.518 295.69 365.981 294.7 365.23L172.479 272.532L304.086 349.233C305.165 349.862 306.222 348.387 305.28 347.567L120.67 186.979L315.82 331.783C316.834 332.535 318.051 331.152 317.175 330.242L179.388 187.161L332.056 318.491C332.994 319.298 334.297 318.067 333.544 317.085L190.995 131.016L347.059 303.718C347.901 304.649 349.36 303.549 348.696 302.483L244.584 135.362L364.791 292.788C365.547 293.779 367.085 292.824 366.531 291.707L275.814 108.594L388.8 292.046L282.458 51.4462L402.316 275.571C402.903 276.667 404.568 275.978 404.21 274.788L349.645 93.7963L408.234 235.662C408.692 236.77 410.351 236.335 410.208 235.146L387.517 47.3442L440.14 253.805C440.441 254.988 442.185 254.756 442.166 253.535L439.249 65.6078L464.316 264.834C464.471 266.061 466.262 266.023 466.363 264.79L479.746 102.597L485.011 265.073C485.051 266.315 486.849 266.435 487.055 265.209L524.179 43.5848L505.869 267.052C505.767 268.3 507.561 268.614 507.889 267.405L559.75 75.9628L525.941 272.718C525.73 273.945 527.473 274.422 527.917 273.259L612.128 52.7062L545.316 281.165C544.971 282.343 546.606 283.027 547.203 281.955L647.749 101.446L564.996 288.581C564.49 289.725 566.078 290.611 566.786 289.58L703.579 90.3223Z" fill="#81F2FF"/>
<path d="M768.381 469.037L602.021 474.907C600.96 474.944 600.819 476.459 601.853 476.693L741.339 508.14L603.484 489.966C602.391 489.822 602.038 491.386 603.088 491.723L752.115 539.651L599.62 504.022C598.555 503.773 598.044 505.275 599.04 505.726L720.059 560.61L586.422 514.834L729.411 584.511L586.636 529.454C585.662 529.079 584.931 530.376 585.756 531.014L706.387 624.145L584.05 545.424C583.109 544.819 582.122 546.123 582.961 546.862L678.709 631.332L575.364 556.702C574.459 556.048 573.404 557.291 574.196 558.076L688.375 671.304L564.106 566.132C563.268 565.423 562.127 566.536 562.817 567.389L641.575 664.954L546.692 569.024L660.994 705.324L540.643 582.065C539.9 581.304 538.681 582.224 539.21 583.146L611.921 709.875L527.831 589.394C527.225 588.526 525.875 589.227 526.238 590.221L580.015 737.683L511.423 589.187L571.776 764.516L501.003 599.232C500.591 598.269 499.143 598.66 499.273 599.7L519.205 759.229L486.621 603.066C486.404 602.026 484.882 602.147 484.831 603.208L478.072 745.273L471.644 597.474L457.393 764.071L458.008 607.914C458.013 606.808 456.406 606.663 456.212 607.752L430.625 751.623L443.715 605.131C443.812 604.042 442.252 603.747 441.945 604.797L405.363 729.742L429.083 604.509C429.291 603.413 427.716 602.986 427.341 604.037L375.593 749.23L415.815 598.29C416.098 597.228 414.596 596.676 414.123 597.669L355.437 720.835L403.25 590.58C403.62 589.571 402.236 588.874 401.644 589.771L315.391 720.679L389.469 585.065C389.996 584.099 388.666 583.207 387.972 584.061L309.04 681.069L378.207 576.013C378.808 575.1 377.575 574.103 376.807 574.88L271.946 680.925L366.722 566.999C367.427 566.152 366.289 565.02 365.444 565.728L278.653 638.488L358.416 555.078C359.163 554.297 358.157 553.101 357.258 553.702L223.021 643.354L348.368 544.267C349.232 543.584 348.356 542.243 347.383 542.758L230.098 604.899L341.514 531.518C342.43 530.915 341.684 529.508 340.671 529.927L213.338 582.502L338.118 516.941C339.049 516.452 338.537 515.037 337.508 515.257L213.499 541.664L328.965 504.441C330.025 504.099 329.65 502.516 328.549 502.686L179.542 525.659L327.774 489.885C328.84 489.628 328.615 488.051 327.519 488.103L192.745 494.423L325.993 475.512C327.082 475.358 327.005 473.762 325.906 473.713L167.42 466.698L325.243 460.942C326.349 460.902 326.43 459.292 325.333 459.142L206.722 442.89L329.246 446.805C330.322 446.839 330.547 445.303 329.507 445.027L189.452 407.869L331.59 432.329C332.66 432.513 333.088 431.001 332.08 430.598L193.215 375.037L333.214 417.519C334.282 417.843 334.876 416.326 333.871 415.84L231.038 366.095L342.369 405.817C343.384 406.179 344.069 404.784 343.161 404.204L207.216 317.278L347.762 391.998C348.736 392.516 349.614 391.171 348.747 390.489L255.937 317.468L358.744 382.029C359.643 382.594 360.613 381.416 359.884 380.643L256.121 270.632L373.883 375.74L287.344 276.929L379.912 362.875C380.665 363.574 381.816 362.678 381.321 361.778L310.802 233.455L389.27 350.153C389.887 351.07 391.297 350.292 390.849 349.282L344.981 245.932L400.94 341.871C401.502 342.835 402.972 342.124 402.564 341.085L357.386 225.99L416.101 340.317C416.585 341.259 418.018 340.745 417.79 339.71L384.719 189.451L432.236 342.381L407.453 198.979L443.62 332.504C443.899 333.534 445.42 333.316 445.399 332.25L442.489 185.32L458.09 329.204C458.208 330.29 459.793 330.276 459.891 329.188L469.214 226.426L472.369 328.719C472.403 329.816 473.995 329.916 474.167 328.833L500.163 165.214L487.047 328.923C486.958 330.029 488.557 330.291 488.827 329.215L521.409 199.423L500.785 334.022C500.621 335.097 502.146 335.494 502.527 334.476L558.304 185.771L515.16 337.127C514.857 338.188 516.358 338.763 516.843 337.772L575.262 218.511L528.084 343.682C527.697 344.706 529.126 345.407 529.701 344.475L602.196 226.943L536.52 359.3L637.87 210.041L552.017 359.442C551.473 360.389 552.763 361.31 553.483 360.489L637.656 264.497L577.246 348.931C576.634 349.787 577.731 350.821 578.551 350.16L678.46 269.639L578.611 374.037C577.869 374.812 578.856 376.003 579.757 375.421L686.644 306.357L581.296 392.119C580.453 392.805 581.316 394.121 582.283 393.623L679.843 343.344L588.861 404.331C587.954 404.94 588.702 406.336 589.711 405.918L730.344 347.738L595.562 417.297C594.584 417.802 595.186 419.285 596.239 418.966L724.436 380.187L599.522 431.25C598.509 431.665 598.965 433.185 600.039 432.975L757.017 402.192L601.47 445.878C600.431 446.169 600.683 447.706 601.76 447.652L741.605 440.615L604.724 460.191C603.636 460.347 603.715 461.943 604.814 461.99L768.381 469.037Z" fill="#DCFBFF"/>
<path d="M646.027 184.452L554.895 345.022C554.371 345.944 555.589 346.858 556.33 346.099L667.228 232.529L569.633 352.539C568.937 353.394 570.086 354.513 570.924 353.796L703.163 240.627L580.628 364.178C579.858 364.955 580.87 366.176 581.777 365.564L704.36 282.921L583.859 382.168L732.3 287.955L597.242 390.825C596.412 391.457 597.135 392.759 598.111 392.39L756.326 332.559L610.181 402.65C609.172 403.134 609.767 404.657 610.837 404.33L747.077 362.761L615.789 417.274C614.758 417.702 615.265 419.251 616.35 418.988L790.346 376.802L618.333 433.169C617.29 433.511 617.641 435.065 618.73 434.925L757.269 417.162L611.933 450.915L806.558 422.256L619.989 464.321C618.952 464.555 619.097 466.074 620.16 466.107L782.44 471.064L619.484 480.495C618.426 480.557 618.317 482.072 619.355 482.284L790.179 517.18L610.52 495.772L810.699 540.464L613.286 511.291C612.249 511.138 611.825 512.575 612.779 513.009L775.284 586.869L608.538 526.887C607.538 526.527 606.843 527.887 607.721 528.485L738.32 617.495L595.303 537.997L744.067 647.831L596.309 556.287C595.368 555.704 594.403 556.996 595.23 557.731L716.84 665.813L585.573 568.127C584.695 567.474 583.627 568.648 584.361 569.459L681.594 676.918L576.388 581.29C575.562 580.539 574.374 581.656 575.074 582.525L682.729 716.209L563.044 590.252C562.286 589.454 561.029 590.444 561.628 591.366L644.299 718.739L548.704 597.714C548.038 596.871 546.719 597.684 547.174 598.657L620.97 756.33L535.523 607.234C534.975 606.279 533.519 606.944 533.883 607.982L579.963 739.379L520.581 612.621C520.117 611.632 518.622 612.159 518.882 613.22L558.354 774.198L505.505 618.077C505.152 617.033 503.591 617.409 503.753 618.499L522.241 743.325L489.581 619.159C489.307 618.114 487.761 618.344 487.802 619.423L494.623 798.487L473.673 622.155C473.543 621.062 471.941 621.105 471.871 622.204L462.477 769.57L457.782 621.269C457.747 620.173 456.157 620.072 455.983 621.154L431.667 772.377L442.156 616.333C442.226 615.285 440.752 614.98 440.4 615.97L393.271 748.589L425.312 617.237C425.576 616.156 424.031 615.646 423.599 616.673L358.53 771.276L410.931 610.145C411.27 609.102 409.808 608.469 409.278 609.428L336.734 740.773L396.454 603.511C396.892 602.503 395.491 601.734 394.875 602.643L295.944 748.555L382.421 595.766C382.965 594.804 381.636 593.893 380.933 594.747L296.256 697.795L371.331 584.079C371.924 583.181 370.733 582.185 369.952 582.926L253.254 693.774L359.182 573.513C359.9 572.698 358.835 571.543 357.963 572.19L224.488 671.231L346.481 563.283C347.317 562.544 346.334 561.243 345.394 561.844L237.956 630.467L340.493 548.179C341.333 547.505 340.503 546.191 339.533 546.659L178.157 624.626L330.858 535.091C331.81 534.532 331.123 533.081 330.087 533.462L206.539 578.893L327.568 519.197C328.521 518.728 328.024 517.285 326.983 517.501L162.504 551.612L329.735 501.643L186.513 525.878L321.669 488.366C322.659 488.091 322.498 486.642 321.471 486.592L159.119 478.643L315.618 472.311C316.723 472.266 316.798 470.658 315.702 470.511L190.663 453.705L314.712 456.61C315.829 456.636 315.993 455.013 314.893 454.816L179.05 430.491L321.522 441.473C322.579 441.554 322.891 440.065 321.889 439.717L160.435 383.623L332.073 427.429L182.575 367.747L330.099 411.22C331.123 411.522 331.734 410.113 330.814 409.573L189.982 326.875L335.487 395.886C336.474 396.355 337.292 394.998 336.416 394.345L244.194 325.521L343.305 382.261C344.258 382.807 345.178 381.504 344.344 380.79L204.419 260.971L352.044 368.743C352.941 369.397 354.002 368.174 353.225 367.381L248.959 260.78L364.578 358.686C365.408 359.388 366.545 358.299 365.877 357.44L257.449 218.163L375.847 347.152C376.593 347.965 377.869 346.989 377.279 346.057L298.122 221.157L389.389 338.778C390.06 339.644 391.406 338.794 390.912 337.817L321.661 200.695L408.386 339.099L326.382 157.346L417.95 325.441C418.472 326.4 419.932 325.784 419.609 324.741L377.581 189.066L422.46 295.42C422.869 296.389 424.325 295.997 424.191 294.953L406.049 153.648L446.846 308.808C447.119 309.845 448.651 309.63 448.627 308.558L445.39 167.201L465.357 316.87C465.501 317.948 467.075 317.902 467.157 316.819L476.314 195.008L481.163 316.871C481.207 317.962 482.789 318.056 482.962 316.978L509.688 150.034L497.146 318.15C497.065 319.247 498.644 319.511 498.924 318.447L536.85 174.374L512.509 322.427C512.331 323.507 513.867 323.915 514.25 322.89L576.45 156.455L527.348 328.913C527.053 329.95 528.495 330.54 529.013 329.595L603.741 193.195L542.546 334.261C542.109 335.269 543.511 336.037 544.127 335.127L646.027 184.452Z" fill="#DCFBFF"/>
<path d="M627.938 140.474L547.832 325.541C547.411 326.513 548.72 327.292 549.375 326.458L656.521 190.045L564.431 332.132C563.832 333.057 565.094 334.046 565.85 333.243L696.376 194.611L577.673 343.339C576.991 344.193 578.129 345.299 578.965 344.594L702.624 240.26L583.787 361.799L733.463 242.443L598.89 369.986C598.133 370.704 598.991 371.921 599.922 371.449L764.699 287.924L613.78 381.456C612.829 382.045 613.584 383.495 614.613 383.056L758.223 321.704L621.564 396.568C620.585 397.104 621.255 398.59 622.305 398.212L806.712 331.846L626.311 413.333C625.311 413.785 625.827 415.292 626.895 415.036L775.629 379.409L622.234 432.945L829.588 379.161L631.925 446.722C630.919 447.065 631.227 448.561 632.288 448.479L809.193 434.822L633.264 464.188C632.219 464.363 632.274 465.881 633.328 465.981L822.972 483.845L625.957 481.673L847.915 506.653L630.199 498.13C629.151 498.089 628.884 499.563 629.879 499.892L815.008 561.034L626.841 515.443C625.808 515.193 625.263 516.619 626.201 517.119L778.576 598.512L614.427 529.167L788.35 630.684L616.817 548.448C615.819 547.969 614.998 549.357 615.9 549.999L760.979 653.336L606.715 562.509C605.772 561.954 604.836 563.236 605.653 563.964L724.121 669.48L598.183 577.639C597.281 576.981 596.22 578.22 597.01 579.009L729.951 711.885L584.957 588.949C584.118 588.237 582.975 589.356 583.67 590.209L688.641 719.117L570.485 598.773C569.732 598.006 568.508 598.956 569.065 599.875L667.787 762.542L557.3 610.407C556.653 609.516 555.277 610.334 555.751 611.327L621.405 748.986L541.848 618.001C541.281 617.068 539.851 617.752 540.223 618.779L602.088 789.209L526.21 625.553C525.747 624.553 524.236 625.094 524.513 626.161L559.375 760.006L509.213 628.714C508.827 627.705 507.315 628.099 507.472 629.168L535.934 822.957L492.404 633.642C492.157 632.569 490.569 632.784 490.617 633.884L497.745 795.409L475.176 634.569C475.024 633.483 473.433 633.553 473.376 634.648L464.717 802.05L457.774 631.301C457.731 630.251 456.232 630.107 455.989 631.129L420.362 780.785L439.801 633.832C439.947 632.728 438.355 632.387 438.036 633.454L385.407 809.41L423.44 628.01C423.665 626.937 422.143 626.464 421.72 627.475L358.237 778.935L407.075 622.52C407.402 621.471 405.927 620.856 405.411 621.827L314.987 792.128L391.085 615.749C391.523 614.734 390.103 613.971 389.496 614.896L309.38 737.137L377.665 604.62C378.157 603.664 376.866 602.801 376.169 603.622L262.353 737.813L363.391 594.604C364.017 593.717 362.834 592.682 362.037 593.419L228.57 716.769L348.696 584.876C349.447 584.051 348.33 582.864 347.46 583.562L238.376 671.062L340.252 569.484C341.015 568.724 340.048 567.507 339.134 568.077L172.951 671.73L328.51 556.404C329.397 555.747 328.558 554.378 327.569 554.868L198.322 618.9L322.895 539.781C323.792 539.212 323.143 537.831 322.132 538.158L147.453 594.512L322.653 520.861L170.432 563.845L312.829 507.246C313.784 506.866 313.468 505.442 312.442 505.502L135.242 515.909L304.846 490.619C305.939 490.456 305.841 488.85 304.736 488.821L166.472 485.222L302.155 473.775C303.268 473.681 303.257 472.05 302.142 471.972L151.181 461.447L307.335 456.659C308.395 456.627 308.545 455.113 307.511 454.874L125.539 412.883L316.493 440.24L147.649 393.107L313.102 423.039C314.152 423.229 314.609 421.764 313.635 421.325L150.882 347.991L317.258 405.958C318.29 406.318 318.957 404.881 318.017 404.326L209.415 340.186L324.145 390.368C325.151 390.809 325.925 389.414 325.019 388.794L158.793 274.952L332.08 374.853C333.042 375.407 333.965 374.077 333.108 373.372L206.991 269.537L344.276 362.45C345.176 363.06 346.19 361.854 345.434 361.073L211.193 222.406L355.161 348.807C355.991 349.535 357.154 348.427 356.467 347.564L255.578 220.891L368.743 338.163C369.503 338.951 370.75 337.962 370.154 337.043L278.666 195.986L388.768 335.688L278.7 148.502L397.983 320.447C398.606 321.345 399.991 320.576 399.558 319.573L337.845 176.858L399.175 287.268C399.686 288.189 401.092 287.642 400.846 286.619L364.518 135.185L427.103 299.036C427.486 300.038 428.986 299.659 428.846 298.596L408.698 145.257L448.028 305.711C448.287 306.767 449.847 306.553 449.812 305.466L445.434 171.746L465.076 303.913C465.236 304.993 466.819 304.916 466.875 303.826L476.3 119.154L482.44 303.507C482.477 304.606 484.075 304.699 484.24 303.611L508.557 142.329L499.498 306.287C499.438 307.379 501.008 307.62 501.279 306.56L549.331 118.299L516.248 311.457C516.066 312.519 517.563 312.951 517.976 311.956L583.181 154.884L533.193 315.59C532.866 316.639 534.343 317.252 534.857 316.281L627.938 140.474Z" fill="#DCFBFF"/>
<path d="M817.172 488.894L621.652 483.79C620.406 483.757 620.131 485.526 621.327 485.874L782.64 532.84L622.282 501.57C621.011 501.322 620.485 503.133 621.691 503.604L793.005 570.602L616.738 517.79C615.507 517.421 614.799 519.146 615.935 519.748L753.9 592.89L600.48 529.528L763.145 621.617L599.676 546.703C598.562 546.193 597.61 547.662 598.533 548.47L733.285 666.476L595.492 565.261C594.433 564.483 593.181 565.941 594.111 566.87L700.308 672.915L584.493 577.871C583.479 577.039 582.152 578.421 583.024 579.4L708.761 720.528L570.61 588.127C569.679 587.235 568.261 588.459 569.007 589.511L654.335 709.701L549.98 590.266L674.197 758.483L541.945 605.136C541.129 604.19 539.633 605.182 540.186 606.302L616.32 760.286L526.391 612.816C525.743 611.753 524.11 612.478 524.464 613.672L576.897 790.625L507.164 611.389L565.3 821.525L494.22 622.428C493.806 621.268 492.08 621.623 492.157 622.853L504.029 811.529L477.078 625.891C476.898 624.655 475.104 624.687 474.968 625.928L456.797 792.183L459.916 618.247L431.191 812.756L443.173 629.518C443.258 628.22 441.384 627.935 441.078 629.199L400.697 796.216L426.611 625.221C426.804 623.95 424.995 623.492 424.559 624.701L372.649 768.713L409.497 623.436C409.819 622.165 408.003 621.551 407.488 622.757L336.331 789.44L394.385 615.181C394.793 613.954 393.072 613.198 392.446 614.33L314.741 754.659L380.206 605.225C380.713 604.068 379.139 603.15 378.381 604.16L267.788 751.589L364.441 597.759C365.129 596.663 363.634 595.521 362.758 596.473L263.197 704.641L351.887 586.322C352.657 585.295 351.284 584.036 350.327 584.892L219.706 701.797L339.068 574.915C339.956 573.971 338.703 572.561 337.661 573.331L230.632 652.472L330.187 560.325C331.119 559.462 330.026 557.986 328.929 558.625L165.038 654.172L319.184 546.91C320.246 546.171 319.315 544.534 318.137 545.069L176.111 609.548L312.065 531.453C313.182 530.811 312.409 529.107 311.19 529.525L158.071 582.052L309.133 514.1C310.26 513.593 309.761 511.895 308.539 512.078L161.204 534.132L299.3 498.768C300.568 498.443 300.243 496.559 298.939 496.678L122.536 512.899L298.953 481.598C300.222 481.373 300.071 479.506 298.782 479.488L140.272 477.189L297.902 464.6C299.19 464.497 299.214 462.619 297.929 462.482L112.572 442.822L298.072 447.445C299.372 447.477 299.583 445.594 298.308 445.339L160.379 417.712L303.785 431.141C305.045 431.259 305.421 429.472 304.22 429.073L142.652 375.363L307.579 414.319C308.821 414.612 309.432 412.869 308.278 412.323L149.433 337.099L310.551 397.054C311.78 397.511 312.586 395.773 311.443 395.13L194.434 329.331L322.132 383.979C323.295 384.478 324.199 382.889 323.177 382.143L170.017 270.317L329.452 368.148C330.558 368.826 331.684 367.312 330.716 366.448L227.14 274.052L343.05 357.239C344.064 357.967 345.286 356.654 344.487 355.695L230.733 219.094L361.258 350.95L266.895 228.736L369.256 336.285C370.088 337.159 371.503 336.19 370.988 335.098L297.541 179.401L381.148 322.027C381.805 323.148 383.515 322.337 383.062 321.119L336.724 196.509L395.431 313.147C396.021 314.32 397.796 313.592 397.393 312.342L352.709 173.998L413.323 312.417C413.823 313.558 415.54 313.057 415.348 311.826L387.399 133.083L432.097 316.002L413.373 145.904L446.159 305.231C446.412 306.46 448.211 306.314 448.263 305.061L455.446 132.398L463.366 302.401C463.426 303.684 465.286 303.782 465.48 302.512L483.823 182.571L480.147 302.861C480.107 304.151 481.968 304.384 482.248 303.124L524.532 112.958L497.346 304.159C497.162 305.45 499.018 305.874 499.412 304.63L546.982 154.641L513.089 311.134C512.819 312.383 514.578 312.96 515.099 311.792L591.234 141.277L529.723 315.814C529.292 317.038 531.01 317.821 531.65 316.693L608.76 180.927L544.407 324.439C543.88 325.615 545.505 326.54 546.246 325.487L639.739 192.766L553.174 343.38L682.794 175.5L571.338 344.664C570.632 345.736 572.078 346.909 572.981 345.997L678.615 239.4L601.683 334.145C600.903 335.105 602.115 336.398 603.124 335.682L726.098 248.377L601.473 363.711C600.547 364.567 601.618 366.036 602.717 365.418L733.047 292.063L603.318 385.127C602.28 385.871 603.197 387.479 604.366 386.964L722.405 334.985L611.309 400.006C610.201 400.655 610.978 402.347 612.192 401.93L781.312 343.783L618.232 415.707C617.049 416.229 617.648 418.013 618.907 417.715L772.043 381.442L621.87 432.37C620.652 432.783 621.077 434.601 622.352 434.431L808.665 409.619L623.1 449.679C621.861 449.946 622.045 451.767 623.312 451.781L787.821 453.605L625.884 466.713C624.596 466.817 624.574 468.696 625.859 468.831L817.172 488.894Z" fill="#DCFBFF"/>
<path d="M694.205 146.054L575.752 327.946C575.072 328.99 576.434 330.151 577.357 329.314L715.601 204.01L592.494 337.831C591.617 338.784 592.884 340.18 593.917 339.4L757.16 216.107L604.549 352.285C603.59 353.141 604.689 354.647 605.797 353.995L755.513 265.833L607.041 373.632L787.917 273.756L622.111 384.758C621.092 385.44 621.846 387.021 623.018 386.658L812.877 327.84L636.433 399.57C635.215 400.065 635.802 401.895 637.081 401.589L799.853 362.622L641.955 417.138C640.715 417.566 641.198 419.421 642.489 419.19L849.582 382.222L643.792 435.978C642.544 436.304 642.844 438.153 644.131 438.068L807.882 427.207L635.007 456.345L865.317 436.74L643.488 472.66C642.254 472.86 642.316 474.654 643.56 474.769L833.514 492.287L641.729 491.608C640.484 491.604 640.247 493.375 641.449 493.698L839.264 546.972L630.115 508.892L861.65 575.779L632.24 527.306C631.035 527.052 630.434 528.708 631.522 529.286L816.771 627.692L625.547 545.269C624.4 544.775 623.488 546.32 624.474 547.086L771.214 660.972L609.225 557.354L775.765 696.993L609.086 578.894C608.024 578.142 606.8 579.589 607.717 580.512L742.539 716.136L595.641 592.017C594.659 591.188 593.322 592.488 594.124 593.493L700.404 726.629L583.921 606.804C583.007 605.863 581.533 607.089 582.291 608.16L698.901 772.826L567.625 616.36C566.794 615.37 565.249 616.441 565.884 617.567L653.65 773.025L550.271 624.085C549.55 623.048 547.944 623.907 548.408 625.082L623.581 815.463L534.125 634.309C533.553 633.149 531.797 633.824 532.149 635.069L576.713 792.612L516.214 639.554C515.742 638.36 513.95 638.87 514.179 640.134L548.861 831.921L498.141 644.871C497.802 643.62 495.945 643.949 496.055 645.24L508.736 793.081L479.389 644.993C479.142 643.746 477.312 643.904 477.283 645.175L472.369 855.835L460.516 647.362C460.443 646.07 458.561 646.006 458.399 647.29L436.756 819.577L441.944 645.176C441.982 643.888 440.125 643.655 439.843 644.912L400.421 820.65L423.974 638.257C424.133 637.031 422.426 636.567 421.941 637.704L357.109 789.962L404.157 638.104C404.544 636.853 402.768 636.144 402.188 637.318L314.731 814.085L387.802 628.742C388.275 627.543 386.606 626.694 385.915 627.782L291.369 776.712L371.303 619.913C371.89 618.761 370.303 617.757 369.514 618.78L242.972 782.905L355.404 609.811C356.113 608.72 354.619 607.555 353.733 608.508L246.999 723.35L343.242 595.295C344.002 594.283 342.677 593.028 341.708 593.841L196.858 715.531L329.756 582.017C330.657 581.112 329.492 579.679 328.422 580.375L164.75 686.998L315.599 569.094C316.632 568.286 315.574 566.69 314.428 567.327L183.483 640.124L309.666 550.934C310.7 550.204 309.82 548.602 308.649 549.082L113.776 628.957L299.31 534.878C300.466 534.292 299.766 532.539 298.523 532.911L150.358 577.327L296.598 515.987C297.749 515.504 297.27 513.776 296.035 513.954L100.684 542.131L300.405 495.539L130.696 513.659L291.903 479.375C293.085 479.124 293 477.411 291.799 477.278L101.976 456.243L285.964 460.094C287.263 460.122 287.468 458.24 286.193 457.988L140.767 429.248L286.035 441.601C287.343 441.712 287.652 439.819 286.376 439.508L128.822 401.164L295.112 424.325C296.346 424.497 296.819 422.771 295.669 422.291L110.372 344.813L308.499 408.602L137.48 327.776L307.353 389.436C308.532 389.864 309.35 388.255 308.31 387.554L149.115 280.338L314.776 371.827C315.9 372.448 316.957 370.915 315.978 370.085L212.788 282.657L324.928 356.399C326.006 357.108 327.179 355.645 326.253 354.747L170.797 204.027L336.151 341.162C337.156 341.995 338.488 340.636 337.635 339.649L223.045 207.014L351.575 330.262C352.498 331.147 353.911 329.949 353.189 328.894L236.075 157.606L365.623 317.537C366.439 318.545 368.006 317.491 367.381 316.355L283.558 164.052L382.107 308.685C382.833 309.749 384.472 308.849 383.963 307.666L312.638 141.733L404.363 310.431L321.3 91.1942L416.563 295.09C417.107 296.253 418.864 295.636 418.56 294.388L379.056 132.116L424.017 260.179C424.427 261.347 426.164 260.991 426.082 259.757L414.995 92.5985L451.651 277.651C451.896 278.888 453.709 278.746 453.757 277.486L460.155 111.341L472.778 288.449C472.869 289.723 474.719 289.784 474.892 288.518L494.415 146.208L491.315 289.589C491.287 290.872 493.136 291.097 493.416 289.844L536.798 95.8282L509.966 292.243C509.791 293.525 511.625 293.948 512.03 292.72L566.896 126.354L527.674 298.37C527.388 299.624 529.159 300.214 529.682 299.039L614.628 108.177L544.609 307.053C544.188 308.249 545.836 309.045 546.512 307.973L643.984 153.267L562.047 314.425C561.461 315.577 563.05 316.579 563.838 315.555L694.205 146.054Z" fill="#DCFBFF"/>
<path d="M676.162 93.1329L568.874 304.571C568.31 305.682 569.789 306.69 570.617 305.759L706.109 153.376L587.865 313.504C587.096 314.546 588.505 315.798 589.449 314.911L752.518 161.608L602.587 327.612C601.725 328.566 602.98 329.945 604.011 329.178L756.554 215.637L608.426 349.719L792.563 220.422L625.547 360.419C624.607 361.206 625.526 362.696 626.652 362.21L825.914 276.056L642.182 374.954C641.025 375.577 641.805 377.333 643.043 376.892L815.884 315.236L650.22 393.252C649.034 393.811 649.713 395.603 650.972 395.235L872.018 330.636L654.579 413.272C653.373 413.73 653.87 415.536 655.141 415.313L832.135 384.22L648.383 435.996L895.433 387.819L658.755 452.865C657.55 453.196 657.804 454.973 659.053 454.953L867.501 451.678L659.066 473.462C657.828 473.591 657.782 475.377 659.012 475.57L880.126 510.21L649.235 493.457L907.733 538.778L653.024 513.078C651.798 512.954 651.378 514.666 652.522 515.123L865.22 600.233L647.837 533.157C646.643 532.789 645.902 534.423 646.965 535.078L819.792 641.595L632.29 548.37L828.935 680.06L633.701 571.172C632.565 570.538 631.503 572.108 632.514 572.927L795.202 704.673L620.841 586.948C619.775 586.228 618.585 587.665 619.491 588.578L750.813 720.964L609.744 604.091C608.734 603.254 607.4 604.631 608.269 605.614L754.592 771.156L593.418 616.411C592.485 615.516 591.064 616.746 591.817 617.798L705.625 776.666L575.738 626.898C574.91 625.944 573.405 626.971 573.993 628.089L678.037 826.13L559.436 639.602C558.742 638.511 557.069 639.371 557.553 640.571L624.621 806.875L540.767 647.402C540.169 646.266 538.443 646.966 538.806 648.198L599.067 852.692L521.884 655.138C521.412 653.931 519.601 654.457 519.85 655.729L551.081 815.338L501.722 657.624C501.343 656.411 499.541 656.765 499.648 658.031L519.053 887.533L481.654 662.195C481.442 660.918 479.564 661.056 479.542 662.351L476.253 852.447L461.384 662.041C461.284 660.756 459.413 660.723 459.267 662.004L437.041 857.86L441.211 656.951C441.237 655.716 439.49 655.438 439.13 656.62L386.558 829.704L419.951 658.625C420.202 657.34 418.36 656.826 417.909 658.055L343.5 860.78L401.184 650.612C401.525 649.369 399.775 648.704 399.205 649.861L313.835 823.053L382.388 642.989C382.848 641.782 381.161 640.954 380.487 642.056L262.162 835.42L364.124 633.889C364.711 632.729 363.1 631.731 362.323 632.773L259.553 770.473L349.188 619.86C349.835 618.773 348.382 617.667 347.507 618.58L204.353 767.875L333.171 607.075C333.969 606.079 332.657 604.779 331.668 605.587L166.252 740.741L316.639 594.597C317.58 593.683 316.355 592.209 315.284 592.966L181.048 687.801L307.847 575.923C308.796 575.086 307.75 573.588 306.637 574.191L104.274 683.868L295.02 559.725C296.107 559.017 295.222 557.35 294.027 557.854L137.837 623.69L289.633 539.81C290.726 539.206 290.064 537.539 288.855 537.849L79.9396 591.399L290.714 517.585L109.099 557.061L280.175 500.896C281.322 500.52 281.054 498.826 279.846 498.823L71.2876 498.261L272.011 480.807C273.306 480.694 273.307 478.801 272.012 478.688L110.125 464.496L270.071 460.842C271.383 460.812 271.487 458.897 270.185 458.725L93.9061 435.489L277.38 441.127C278.625 441.165 278.91 439.399 277.715 439.044L67.337 376.64L289.303 422.516L94.6921 355.022L286.567 402.083C287.785 402.382 288.426 400.694 287.316 400.109L101.737 302.303L292.673 382.334C293.857 382.831 294.743 381.193 293.68 380.473L170.944 297.362L301.873 364.533C303.021 365.122 304.03 363.542 303.012 362.748L116.282 217.147L312.298 346.894C313.386 347.615 314.564 346.12 313.61 345.23L173.196 214.267L327.494 333.217C328.507 333.997 329.783 332.655 328.952 331.683L181.522 159.251L341.245 317.988C342.165 318.902 343.609 317.686 342.865 316.624L233.683 160.673L357.939 306.474C358.775 307.454 360.308 306.383 359.675 305.262L262.555 133.107L381.602 305.013L266.019 77.3773L393.508 287.79C394.174 288.888 395.854 288.085 395.418 286.877L333.337 114.923L397.298 248.933C397.831 250.05 399.52 249.51 399.306 248.291L367.621 67.9334L429.203 264.758C429.579 265.962 431.366 265.625 431.278 264.367L418.707 82.9403L453.26 274.102C453.488 275.359 455.333 275.221 455.37 273.943L459.879 116.679L473.383 273.22C473.493 274.499 475.355 274.524 475.499 273.248L499.868 57.1765L493.775 273.995C493.739 275.288 495.607 275.513 495.878 274.248L536.026 86.7033L513.58 278.488C513.43 279.766 515.254 280.162 515.648 278.937L585.577 61.4384L532.85 285.764C532.56 286.998 534.285 287.613 534.841 286.474L622.635 106.819L552.424 291.836C551.965 293.045 553.652 293.871 554.326 292.768L676.162 93.1329Z" fill="#DCFBFF"/>
</svg>
