<svg width="496" height="496" viewBox="0 0 496 496" fill="none" xmlns="http://www.w3.org/2000/svg">
<path d="M243.646 143.585C245.99 145.927 249.788 145.927 252.131 143.585L393.499 2.24529C395.842 -0.0972943 399.64 -0.0972979 401.983 2.24529L493.432 93.6759C495.776 96.0191 495.776 99.8188 493.432 102.162L352.066 243.498C349.722 245.841 349.722 249.641 352.066 251.984L493.104 392.994C495.447 395.337 495.447 399.137 493.104 401.48L401.655 492.911C399.312 495.254 395.514 495.254 393.171 492.911L252.13 351.898C249.787 349.555 245.989 349.555 243.645 351.898L102.18 493.337C99.8367 495.679 96.0383 495.679 93.6953 493.337L2.24774 401.906C-0.0959352 399.563 -0.0959352 395.763 2.24774 393.42L143.71 251.984C146.054 249.641 146.054 245.841 143.71 243.498L1.91969 101.735C-0.424016 99.392 -0.424012 95.5924 1.91971 93.2491L93.3681 1.81947C95.7112 -0.523102 99.5095 -0.523097 101.853 1.81948L243.646 143.585Z" fill="#EE1515"/>
</svg>
