<svg width="222" height="230" viewBox="0 0 222 230" fill="none" xmlns="http://www.w3.org/2000/svg">
<path d="M71.3805 178.52C65.8401 163.013 65.3983 146.19 70.0389 130.486C73.2664 129.653 76.4388 128.593 79.5321 127.312C88.2068 123.719 96.0889 118.452 102.728 111.813C109.368 105.173 114.634 97.2911 118.228 88.6163C119.609 85.2817 120.732 81.855 121.592 78.3664C133.502 74.7058 146.203 73.9461 158.612 76.2672C176.56 79.6245 192.747 89.2115 204.318 103.338L184.052 119.937C174.644 108.464 160.358 101.143 144.363 101.143C116.029 101.143 93.0597 124.112 93.0597 152.446C93.0597 180.78 116.029 203.749 144.363 203.749C172.696 203.749 195.665 180.78 195.665 152.446L221.863 152.446C221.863 170.706 215.415 188.379 203.657 202.35C191.899 216.32 175.586 225.691 157.594 228.808C139.602 231.926 121.087 228.59 105.314 219.39C89.5416 210.19 77.5238 195.716 71.3805 178.52Z" fill="white"/>
<path fill-rule="evenodd" clip-rule="evenodd" d="M144.362 174.547C156.569 174.547 166.464 164.652 166.464 152.446C166.464 140.24 156.569 130.345 144.362 130.345C132.156 130.345 122.261 140.24 122.261 152.446C122.261 164.652 132.156 174.547 144.362 174.547ZM144.362 165.545C151.597 165.545 157.461 159.68 157.461 152.446C157.461 145.212 151.597 139.347 144.362 139.347C137.128 139.347 131.264 145.212 131.264 152.446C131.264 159.68 137.128 165.545 144.362 165.545Z" fill="white"/>
<path d="M221.862 148.08V152.477L221.695 153.705V155.888L221.582 156.812H158.553V148.08H221.862Z" fill="white"/>
<path d="M130.172 148.08V156.812L76.6865 156.812V148.08H130.172Z" fill="white"/>
<path d="M71.3805 178.52C65.8401 163.013 65.3983 146.19 70.0389 130.486C73.2664 129.653 76.4388 128.593 79.5321 127.312C88.2068 123.719 96.0889 118.452 102.728 111.813C109.368 105.173 114.634 97.2911 118.228 88.6163C119.609 85.2817 120.732 81.855 121.592 78.3664C133.502 74.7058 146.203 73.9461 158.612 76.2672C176.56 79.6245 192.747 89.2115 204.318 103.338L184.052 119.937C174.644 108.464 160.358 101.143 144.363 101.143C116.029 101.143 93.0597 124.112 93.0597 152.446C93.0597 180.78 116.029 203.749 144.363 203.749C172.696 203.749 195.665 180.78 195.665 152.446L221.863 152.446C221.863 170.706 215.415 188.379 203.657 202.35C191.899 216.32 175.586 225.691 157.594 228.808C139.602 231.926 121.087 228.59 105.314 219.39C89.5416 210.19 77.5238 195.716 71.3805 178.52Z" fill="white"/>
<path d="M75.2489 5.53669C67.9321 2.50595 60.0899 0.946045 52.1702 0.946045V30.8763C66.8234 33.2327 78.0164 45.9361 78.0164 61.2538C78.0164 76.5715 66.8234 89.2749 52.1702 91.6313V121.561C60.0899 121.561 67.9321 120.002 75.2489 116.971C82.5658 113.94 89.2141 109.498 94.8142 103.898C100.414 98.2976 104.856 91.6494 107.887 84.3325C110.918 77.0156 112.478 69.1735 112.478 61.2537C112.478 53.334 110.918 45.4919 107.887 38.175C104.856 30.8581 100.414 24.2098 94.8142 18.6098C89.2141 13.0097 82.5658 8.56744 75.2489 5.53669Z" fill="white"/>
<path d="M42.3241 0.946167H0.477905V191.715H42.3241V91.6313C27.6709 89.2749 16.4779 76.5715 16.4779 61.2538C16.4779 45.9361 27.6709 33.2327 42.3241 30.8763V0.946167Z" fill="white"/>
<path d="M62.0164 61.2541C62.0164 69.4109 55.404 76.0233 47.2471 76.0233C39.0903 76.0233 32.4779 69.4109 32.4779 61.2541C32.4779 53.0972 39.0903 46.4848 47.2471 46.4848C55.404 46.4848 62.0164 53.0972 62.0164 61.2541Z" fill="white"/>
</svg>
